<?xml version="1.0" encoding="UTF-8" standalone="no"?>
<!DOCTYPE svg PUBLIC "-//W3C//DTD SVG 1.1//EN" "http://www.w3.org/Graphics/SVG/1.1/DTD/svg11.dtd">
<svg version="1.1" xmlns="http://www.w3.org/2000/svg" xmlns:xlink="http://www.w3.org/1999/xlink" preserveAspectRatio="xMidYMid meet" viewBox="0 0 640 640" width="640" height="640"><defs><path d="M524.24 272.55C524.24 382.03 435.36 470.91 325.88 470.91C216.41 470.91 127.53 382.03 127.53 272.55C127.53 163.08 216.41 74.2 325.88 74.2C435.36 74.2 524.24 163.08 524.24 272.55Z" id="a3OKXBaS9q"></path><path d="M289.67 250.41L370.11 244.38L453.36 370.22C467.24 379.31 475.92 384.99 479.39 387.26C484.43 390.56 488.26 395.41 490.31 401.07C491.36 403.99 491.44 404.21 492.52 407.17C494.54 412.75 495.12 418.74 494.21 424.61C493.92 426.44 493.87 426.75 493.44 429.51C493.01 432.31 491.87 434.94 490.13 437.17C486.96 441.24 482.81 446.56 480.32 449.76C476.37 454.81 471.06 458.63 465.01 460.74C464.1 461.06 461.83 461.86 458.19 463.13C441.25 485.96 430.67 500.23 426.44 505.94C419.73 514.98 412.27 523.42 404.12 531.18C401.18 533.98 404.97 530.37 402.12 533.08C393.68 541.12 384.34 548.17 374.3 554.09C369.68 556.81 369.04 557.19 363.94 560.2C355.48 565.18 346.46 569.16 337.07 572.03C334.12 572.93 334.24 572.9 329.99 574.2C325.01 575.72 319.66 575.57 314.76 573.76C308.94 571.6 305.86 570.46 301.75 568.93C291.04 564.96 280.72 559.98 270.93 554.07C268.97 552.88 264.08 549.92 256.24 545.18C247.27 538.02 241.67 533.55 239.43 531.76C229.27 523.65 220.43 514.02 213.23 503.2C212.32 501.84 210.04 498.43 206.41 492.98L176.65 460.4L166.99 455.17C159.22 446.2 154.36 440.59 152.42 438.35C148.25 433.55 145.32 427.81 143.86 421.62C143.58 420.43 144.4 423.93 143.98 422.15C142.99 417.93 143.26 413.5 144.75 409.43C145.5 407.39 145.7 406.87 146.51 404.66C147.82 401.08 149.65 397.71 151.92 394.64C153.08 393.07 153.03 393.15 154.16 391.62C156.47 388.52 159.84 386.39 163.64 385.65C165.05 385.37 168.58 384.68 174.23 383.58L213.89 278.65L289.67 250.41Z" id="f7dIIkmts"></path><path d="M200.89 213.57C238.37 167.93 294.55 147.53 336.6 150.99C384.11 154.9 427.8 174.42 457.99 228.84C471.24 252.73 481.21 283.08 487.9 319.91L449.29 328.36L300.88 262L222.46 305.43L159.71 331.23C163.69 281.36 177.42 242.14 200.89 213.57Z" id="g295YHKIyD"></path><path d="M188.72 354.16C188.72 374.84 171.93 391.63 151.25 391.63C130.56 391.63 113.77 374.84 113.77 354.16C113.77 333.47 130.56 316.68 151.25 316.68C171.93 316.68 188.72 333.47 188.72 354.16Z" id="a8a28LvGSr"></path><path d="M529.69 354.16C529.69 374.84 512.9 391.63 492.21 391.63C471.53 391.63 454.73 374.84 454.73 354.16C454.73 333.47 471.53 316.68 492.21 316.68C512.9 316.68 529.69 333.47 529.69 354.16Z" id="e1vHf5aAhd"></path><path d="M199.85 278.55C178.02 306.97 167.16 342.25 167.27 384.39C167.27 398.65 167.27 407.57 167.27 411.13C167.27 421.22 168.42 431.27 170.68 441.1C172.33 448.27 172.25 447.93 173.5 453.34C177.12 469.06 182.29 484.39 188.93 499.09C191.12 503.92 189.2 499.68 191.76 505.35C196.99 516.9 206.15 526.2 217.61 531.61C218.08 531.83 219.27 532.39 221.17 533.29L216.1 503.89C215.46 487.1 215.05 476.61 214.89 472.41C214.36 458.51 215 444.59 216.82 430.8C217.53 425.42 219.3 411.98 222.13 390.47C222.13 422.75 222.13 442.93 222.13 451C222.13 464.2 224.06 477.34 227.86 489.98C228.48 492.07 230.05 497.28 232.55 505.62C231.75 486.63 231.25 474.76 231.05 470.01C230.71 461.99 230.98 453.95 231.86 445.97C233.45 431.56 234.17 424.97 235.08 416.72C238.21 388.27 244.64 360.28 254.24 333.32C255.16 330.75 257.45 324.33 261.11 314.05C266.69 307.64 270.18 303.64 271.57 302.03C272.65 300.8 274.68 301.71 274.46 303.34C274.04 306.51 274.49 303.1 274.32 304.41C273.02 314.26 272.47 324.19 272.67 334.12C272.84 342.73 273.28 364.23 273.98 398.64C276.47 415.06 278.04 425.32 278.66 429.42C280.89 444.08 285.28 458.32 291.69 471.68C292.91 474.22 295.96 480.57 300.84 490.74L292.4 435.24C296.27 447.28 298.69 454.81 299.66 457.82C302.05 465.28 305 472.54 308.47 479.56C310.19 483.04 314.48 491.72 321.36 505.62C316.45 477.37 313.38 459.71 312.16 452.64C310.52 443.2 309.69 433.63 309.69 424.05C309.69 419.16 309.69 406.94 309.69 387.37L316.13 324.23C320.99 356.33 324.02 376.4 325.24 384.42C326.67 393.88 328.86 403.21 331.8 412.32C333.65 418.04 338.26 432.34 345.65 455.22L361.74 513.54L361.74 466.89L368.98 498.98L370.99 314.05L396.69 365.86C401.27 378.64 404.14 386.63 405.28 389.82C413.46 412.64 418.78 436.38 421.12 460.5C421.61 465.63 422.85 478.46 424.84 498.98L429.67 453.94C430.22 467.06 430.56 475.26 430.7 478.54C431.08 487.6 430.79 496.67 429.82 505.69C429.37 509.89 428.25 520.39 426.45 537.19L451.39 502.6L451.39 541.21C460.94 500.65 466.91 475.3 469.3 465.16C473.7 446.44 476.62 427.4 478.02 408.22C478.33 403.97 479.1 393.33 480.34 376.31C474.53 271.9 421.53 217.69 321.36 213.67C267.26 211.49 225.48 245.19 199.85 278.55Z" id="b7KdCrsRhe"></path></defs><g><g><g><use xlink:href="#a3OKXBaS9q" opacity="1" fill="#1d251e" fill-opacity="1"></use></g><g><use xlink:href="#f7dIIkmts" opacity="1" fill="#cbb787" fill-opacity="1"></use></g><g><use xlink:href="#g295YHKIyD" opacity="1" fill="#e9e385" fill-opacity="1"></use></g><g><use xlink:href="#a8a28LvGSr" opacity="1" fill="#afbd88" fill-opacity="1"></use></g><g><use xlink:href="#e1vHf5aAhd" opacity="1" fill="#afbd88" fill-opacity="1"></use></g><g><use xlink:href="#b7KdCrsRhe" opacity="1" fill="#1d251e" fill-opacity="1"></use></g></g></g></svg>