<?xml version="1.0" encoding="UTF-8" standalone="no"?>
<!DOCTYPE svg PUBLIC "-//W3C//DTD SVG 1.1//EN" "http://www.w3.org/Graphics/SVG/1.1/DTD/svg11.dtd">
<svg version="1.1" xmlns="http://www.w3.org/2000/svg" xmlns:xlink="http://www.w3.org/1999/xlink" preserveAspectRatio="xMidYMid meet" viewBox="0 0 640 640" width="640" height="640"><defs><path d="M587.96 555.78C587.96 746.56 463.07 901.44 309.23 901.44C155.4 901.44 30.5 746.56 30.5 555.78C30.5 365 155.4 210.12 309.23 210.12C463.07 210.12 587.96 365 587.96 555.78Z" id="e4Lht8DMN"></path><path d="M505.15 270.23C505.15 373.56 420.1 457.46 315.33 457.46C210.57 457.46 125.51 373.56 125.51 270.23C125.51 166.89 210.57 83 315.33 83C420.1 83 505.15 166.89 505.15 270.23Z" id="cgr3QbDnY"></path><path d="M519.67 481.6L488.65 718.77L443.24 714.38L486.64 481.6L387.57 592.28L509.29 393.23L519.67 481.6Z" id="f1669nbHQc"></path><path d="M217.72 547.58L173.38 470.39L139.41 392.4L123.37 300.86L98.84 341.16L95.06 427.87L113.93 492.24L129.97 606.43L125.51 746.97L220.56 737.31L148.18 595.01L156.39 563.78L292.27 636.3L217.72 547.58Z" id="aqFI9Y7TN"></path><path d="M416.04 210.12C468.47 210.12 488.35 248.91 488.35 292.86C488.36 414.58 318.12 473.5 318.12 476.85C318.12 476.85 315.1 476.85 315.1 476.85C315.1 473.5 147.88 414.59 147.88 292.86C147.88 248.91 149.7 210.12 202.12 210.12C254.54 210.12 315.11 217.49 315.1 261.45C315.1 217.5 363.62 210.12 416.04 210.12Z" id="bcJN5D9TS"></path><path d="M341.33 402.56C340.6 405.73 340.15 407.72 339.96 408.51C336.75 422.52 331.82 436.07 325.3 448.88C324.38 450.68 322.09 455.18 318.42 462.39C314.94 455.87 312.77 451.8 311.9 450.17C304.61 436.52 299.22 421.94 295.85 406.84C295.73 406.27 295.41 404.84 294.9 402.56C306.22 393.27 313.3 387.47 316.13 385.15C317.45 384.06 319.37 384.07 320.68 385.17C323.44 387.49 330.32 393.29 341.33 402.56Z" id="bxO7pKIJT"></path><path d="M350.83 366.6L348.7 382.93L348.7 395.75L344.76 412.85L344.76 400.64L341.81 407.35L338.2 410.71L336.24 404.3L329.35 401.55L324.43 407.35L320.5 399.72L315.4 393.31L310.66 404.3L306.4 400.64L301.15 407.35L298.86 401.55L295.58 407.35L288.04 419.87L288.04 409.79L288.04 401.55L279.84 407.35L283.77 389.95L283.77 366.6" id="dg78Jijsk"></path><path d="M426.28 278.86C424.13 277.32 413.21 281.01 394.98 286.14C376.75 291.27 364.05 306.98 359.8 315.59C355.63 324.02 354.52 333.49 356.47 343.99C362.89 337.67 366.9 333.72 368.51 332.14C373.88 326.86 380.05 322.45 386.79 319.08C390.38 317.29 391.13 316.91 394.76 315.1C401.22 311.87 406.43 306.59 409.58 300.1C410.58 298.05 409.19 300.92 410.3 298.62C413.1 292.86 417.18 287.81 422.23 283.88C425.77 281.13 427.11 279.46 426.28 278.86Z" id="cjn5HQH4d"></path><path d="M210.84 278.86C212.99 277.32 223.91 281.01 242.14 286.14C260.37 291.27 273.07 306.98 277.32 315.59C281.49 324.02 282.6 333.49 280.65 343.99C274.23 337.67 270.22 333.72 268.61 332.14C263.24 326.86 257.07 322.45 250.33 319.08C246.74 317.29 245.99 316.91 242.36 315.1C235.9 311.87 230.69 306.59 227.54 300.1C226.54 298.05 227.93 300.92 226.82 298.62C224.02 292.86 219.94 287.81 214.88 283.88C211.35 281.13 210 279.46 210.84 278.86Z" id="aebQvz9U"></path></defs><g><g><g><use xlink:href="#e4Lht8DMN" opacity="1" fill="#2a2a2a" fill-opacity="1"></use></g><g><use xlink:href="#cgr3QbDnY" opacity="1" fill="#2a2a2a" fill-opacity="1"></use></g><g><use xlink:href="#f1669nbHQc" opacity="1" fill="#1f1f1f" fill-opacity="1"></use><g><use xlink:href="#f1669nbHQc" opacity="1" fill-opacity="0" stroke="#9f3030" stroke-width="0" stroke-opacity="1"></use></g></g><g><use xlink:href="#aqFI9Y7TN" opacity="1" fill="#1f1f1f" fill-opacity="1"></use><g><use xlink:href="#aqFI9Y7TN" opacity="1" fill-opacity="0" stroke="#9f3030" stroke-width="0" stroke-opacity="1"></use></g></g><g><use xlink:href="#bcJN5D9TS" opacity="1" fill="#b7b5ad" fill-opacity="1"></use><g><use xlink:href="#bcJN5D9TS" opacity="1" fill-opacity="0" stroke="#000000" stroke-width="0" stroke-opacity="1"></use></g></g><g><use xlink:href="#bxO7pKIJT" opacity="1" fill="#c2b666" fill-opacity="1"></use><g><use xlink:href="#bxO7pKIJT" opacity="1" fill-opacity="0" stroke="#000000" stroke-width="0" stroke-opacity="1"></use></g></g><g><use xlink:href="#dg78Jijsk" opacity="1" fill="#b7b5ad" fill-opacity="1"></use><g><use xlink:href="#dg78Jijsk" opacity="1" fill-opacity="0" stroke="#000000" stroke-width="0" stroke-opacity="1"></use></g></g><g><use xlink:href="#cjn5HQH4d" opacity="1" fill="#898882" fill-opacity="1"></use><g><use xlink:href="#cjn5HQH4d" opacity="1" fill-opacity="0" stroke="#000000" stroke-width="0" stroke-opacity="1"></use></g></g><g><use xlink:href="#aebQvz9U" opacity="1" fill="#898882" fill-opacity="1"></use><g><use xlink:href="#aebQvz9U" opacity="1" fill-opacity="0" stroke="#000000" stroke-width="0" stroke-opacity="1"></use></g></g></g></g></svg>