<?xml version="1.0" encoding="UTF-8" standalone="no"?>
<!DOCTYPE svg PUBLIC "-//W3C//DTD SVG 1.1//EN" "http://www.w3.org/Graphics/SVG/1.1/DTD/svg11.dtd">
<svg version="1.1" xmlns="http://www.w3.org/2000/svg" xmlns:xlink="http://www.w3.org/1999/xlink" preserveAspectRatio="xMidYMid meet" viewBox="0 0 640 640" width="640" height="640"><defs><path d="M327.76 111.55L335.02 112.24L342.19 113.19L349.27 114.4L356.25 115.86L363.13 117.57L369.89 119.52L376.54 121.71L383.07 124.13L389.47 126.78L395.73 129.65L401.85 132.74L407.83 136.04L413.66 139.54L419.33 143.24L424.83 147.14L430.17 151.22L435.33 155.49L440.31 159.94L445.11 164.56L449.71 169.34L454.12 174.29L458.32 179.4L462.31 184.66L466.09 190.06L469.64 195.6L472.97 201.28L476.07 207.09L478.92 213.02L481.53 219.07L483.9 225.24L486 231.51L487.85 237.89L489.42 244.36L490.72 250.93L491.75 257.58L492.49 264.31L492.93 271.12L493.08 278L492.93 284.88L492.49 291.69L491.75 298.42L490.72 305.07L489.42 311.64L487.85 318.11L486 324.49L484.44 329.15L480.36 348.63L484.02 343.06L490.49 338.16L490.71 337.99L490.93 337.83L491.16 337.68L491.39 337.53L491.62 337.38L491.85 337.24L492.09 337.1L492.32 336.97L492.56 336.84L492.8 336.71L493.05 336.59L493.29 336.47L493.54 336.36L493.79 336.26L494.04 336.15L494.29 336.05L494.54 335.96L494.8 335.87L495.06 335.79L495.32 335.71L495.58 335.63L495.84 335.56L496.1 335.49L496.36 335.43L496.63 335.37L496.89 335.32L497.16 335.27L497.43 335.23L497.7 335.19L497.97 335.16L498.24 335.13L498.51 335.11L498.78 335.09L499.05 335.07L499.32 335.06L499.6 335.06L499.87 335.06L500.14 335.06L500.42 335.07L500.69 335.09L505.33 335.38L505.59 335.4L505.84 335.43L506.09 335.46L506.35 335.49L506.6 335.53L506.85 335.58L507.1 335.63L507.34 335.68L507.59 335.74L507.84 335.81L508.08 335.88L508.32 335.95L508.56 336.03L508.8 336.11L509.03 336.2L509.27 336.3L509.5 336.4L509.73 336.5L509.95 336.61L510.18 336.72L510.4 336.84L510.62 336.96L510.84 337.08L511.06 337.21L511.27 337.35L511.48 337.49L511.69 337.63L511.89 337.78L512.09 337.93L512.29 338.09L512.49 338.25L512.68 338.41L512.87 338.58L513.05 338.75L513.24 338.93L513.41 339.11L513.59 339.3L513.76 339.49L513.93 339.68L514.1 339.87L515.51 341.59L515.62 341.72L515.72 341.86L515.83 341.99L515.93 342.13L516.04 342.26L516.14 342.4L516.24 342.53L516.34 342.67L516.44 342.81L516.54 342.95L516.64 343.09L516.74 343.23L516.83 343.37L516.93 343.51L517.02 343.65L517.11 343.8L517.2 343.94L517.29 344.08L517.38 344.23L517.47 344.37L517.56 344.52L517.65 344.67L517.73 344.81L517.82 344.96L517.9 345.11L517.98 345.26L518.06 345.41L518.14 345.56L518.22 345.71L518.3 345.86L518.37 346.02L518.45 346.17L518.52 346.32L518.6 346.48L518.67 346.63L518.74 346.79L518.81 346.94L518.88 347.1L518.95 347.25L519.01 347.41L520.63 351.28L520.8 351.69L520.96 352.09L521.13 352.5L521.29 352.91L521.45 353.32L521.61 353.72L521.76 354.13L521.91 354.54L522.06 354.96L522.21 355.37L522.36 355.78L522.5 356.19L522.64 356.61L522.78 357.02L522.92 357.44L523.05 357.85L523.18 358.27L523.32 358.69L523.44 359.11L523.57 359.53L523.69 359.95L523.81 360.37L523.93 360.79L524.05 361.21L524.16 361.63L524.28 362.06L524.39 362.48L524.49 362.9L524.6 363.33L524.7 363.75L524.8 364.18L524.9 364.61L525 365.03L525.09 365.46L525.18 365.89L525.27 366.32L525.36 366.75L525.45 367.18L525.53 367.61L525.61 368.04L527.02 375.73L527.97 396.71L527.98 397L527.99 397.3L528 397.6L528 397.9L528 398.19L527.99 398.49L527.99 398.79L527.98 399.08L527.96 399.38L527.95 399.68L527.93 399.97L527.9 400.27L527.87 400.56L527.84 400.86L527.81 401.15L527.78 401.44L527.74 401.74L527.69 402.03L527.65 402.32L527.6 402.61L527.55 402.91L527.49 403.2L527.43 403.49L527.37 403.78L527.31 404.07L527.24 404.35L527.17 404.64L527.09 404.93L527.02 405.21L526.94 405.5L526.85 405.78L526.77 406.07L526.68 406.35L526.59 406.63L526.49 406.91L526.39 407.19L526.29 407.47L526.18 407.75L526.08 408.03L525.96 408.3L525.84 408.61L525.75 408.83L525.66 409.05L525.56 409.27L525.46 409.48L525.36 409.7L525.26 409.91L525.16 410.12L525.05 410.33L524.94 410.54L524.83 410.75L524.72 410.96L524.6 411.17L524.48 411.37L524.36 411.58L524.24 411.78L524.12 411.98L523.99 412.18L523.86 412.38L523.73 412.58L523.6 412.77L523.47 412.97L523.33 413.16L523.19 413.35L523.05 413.54L522.91 413.73L522.77 413.92L522.62 414.11L522.47 414.29L522.32 414.47L522.17 414.66L522.02 414.84L521.86 415.01L521.7 415.19L521.54 415.37L521.38 415.54L521.22 415.71L521.05 415.88L520.89 416.05L520.72 416.22L520.55 416.38L509.02 427.39L499.95 435.72L499.53 436.1L499.11 436.48L498.69 436.86L498.27 437.24L497.84 437.62L497.42 437.99L496.99 438.36L496.57 438.73L496.14 439.1L495.71 439.47L495.27 439.84L494.84 440.2L494.41 440.56L493.97 440.92L493.53 441.28L493.09 441.64L492.65 442L492.21 442.35L491.77 442.7L491.32 443.05L490.88 443.4L490.43 443.75L489.98 444.1L489.53 444.44L489.08 444.78L488.63 445.12L488.18 445.46L487.72 445.8L487.27 446.14L486.81 446.47L486.35 446.8L485.89 447.13L485.43 447.46L484.97 447.79L484.51 448.11L484.04 448.44L483.57 448.76L483.11 449.08L482.64 449.4L482.57 449.44L482.32 449.61L481.98 449.82L481.63 450.03L481.28 450.24L480.93 450.44L480.57 450.63L480.22 450.82L479.85 451L479.49 451.17L479.12 451.34L478.75 451.5L478.38 451.65L478.01 451.8L477.63 451.94L477.25 452.08L476.87 452.21L476.49 452.33L476.11 452.44L475.72 452.55L475.33 452.66L474.94 452.75L474.55 452.84L474.16 452.92L473.76 453L473.37 453.07L472.97 453.13L472.57 453.18L472.17 453.23L471.77 453.28L471.37 453.31L470.97 453.34L470.56 453.36L470.16 453.37L469.76 453.38L469.35 453.38L468.95 453.38L468.54 453.36L468.14 453.34L467.73 453.32L467.32 453.28L466.98 453.25L466.73 453.22L466.48 453.19L466.24 453.14L466 453.09L465.76 453.03L465.52 452.97L465.29 452.9L465.06 452.82L464.83 452.73L464.61 452.63L464.39 452.53L464.17 452.43L463.96 452.31L463.75 452.19L463.55 452.06L463.35 451.93L463.16 451.79L462.97 451.64L462.78 451.49L462.6 451.34L462.43 451.17L462.26 451.01L462.09 450.83L461.93 450.65L461.78 450.47L461.63 450.28L461.49 450.09L461.35 449.89L461.22 449.69L461.1 449.48L460.98 449.27L460.87 449.05L460.76 448.83L460.66 448.61L460.57 448.38L460.49 448.15L460.41 447.92L460.34 447.68L460.28 447.44L460.23 447.19L460 446.06L458.44 453.5L458.27 454.33L458.08 455.15L457.88 455.98L457.67 456.8L457.45 457.61L457.22 458.43L456.98 459.24L456.74 460.04L456.48 460.85L456.21 461.65L455.93 462.44L455.65 463.24L455.35 464.02L455.04 464.81L454.73 465.59L454.4 466.37L454.07 467.14L453.72 467.91L453.37 468.67L453.01 469.43L452.64 470.19L452.25 470.94L451.86 471.68L451.46 472.42L451.06 473.16L450.64 473.89L450.21 474.62L449.77 475.34L449.33 476.05L448.88 476.77L448.41 477.47L447.94 478.17L447.46 478.87L446.97 479.55L446.48 480.24L445.97 480.91L445.45 481.59L444.93 482.25L444.4 482.91L443.86 483.56L432.81 496.76L431.98 497.73L431.15 498.71L430.32 499.67L429.48 500.63L428.64 501.59L427.79 502.54L426.93 503.49L426.07 504.43L425.2 505.36L424.33 506.3L423.45 507.22L422.57 508.14L421.68 509.06L420.79 509.97L419.89 510.87L418.99 511.77L418.08 512.66L417.16 513.55L416.24 514.43L415.32 515.31L414.39 516.19L413.46 517.05L412.52 517.91L411.57 518.77L410.62 519.62L409.67 520.46L408.71 521.3L407.74 522.14L406.77 522.97L405.8 523.79L404.82 524.61L403.83 525.42L402.85 526.22L401.85 527.02L400.85 527.82L399.85 528.61L398.84 529.39L397.83 530.17L396.81 530.94L395.79 531.7L354.09 562.73L353.54 563.13L352.98 563.52L352.42 563.91L351.85 564.28L351.28 564.64L350.7 564.99L350.11 565.33L349.52 565.66L348.92 565.97L348.32 566.28L347.71 566.58L347.1 566.86L346.49 567.14L345.87 567.4L345.24 567.65L344.62 567.9L343.98 568.13L343.35 568.35L342.71 568.55L342.06 568.75L341.42 568.94L340.77 569.11L340.12 569.28L339.46 569.43L338.8 569.57L338.14 569.7L337.48 569.81L336.81 569.92L336.14 570.01L335.47 570.1L334.8 570.17L334.13 570.23L333.45 570.28L332.78 570.31L332.1 570.33L331.42 570.35L330.74 570.35L330.06 570.33L329.38 570.31L328.7 570.27L303.33 568.69L302.6 568.64L301.87 568.58L301.14 568.52L300.42 568.44L299.69 568.35L298.97 568.26L298.25 568.15L297.53 568.04L296.81 567.92L296.1 567.79L295.39 567.64L294.67 567.5L293.97 567.34L293.26 567.17L292.55 567L291.85 566.81L291.15 566.62L290.45 566.42L289.76 566.21L289.07 565.99L288.38 565.76L287.69 565.52L287.01 565.28L286.33 565.02L285.65 564.76L284.98 564.49L284.31 564.21L283.64 563.92L282.98 563.63L282.32 563.32L281.66 563.01L281.01 562.69L280.36 562.36L279.71 562.02L279.07 561.68L278.44 561.32L277.8 560.96L277.17 560.59L276.55 560.21L275.93 559.82L224.29 527.16L223.44 526.62L222.6 526.08L221.76 525.53L220.93 524.98L220.1 524.42L219.27 523.85L218.44 523.29L217.62 522.71L216.81 522.13L215.99 521.55L215.18 520.96L214.38 520.36L213.58 519.77L212.78 519.16L211.99 518.55L211.2 517.94L210.41 517.32L209.63 516.7L208.85 516.07L208.07 515.43L207.3 514.8L206.54 514.15L205.77 513.51L205.02 512.85L204.26 512.2L203.51 511.53L202.76 510.87L202.02 510.2L201.28 509.52L200.55 508.84L199.82 508.15L199.09 507.46L198.37 506.77L197.65 506.07L196.94 505.37L196.23 504.66L195.53 503.95L194.83 503.23L194.13 502.51L193.44 501.78L174.24 481.5L173.73 480.95L173.23 480.39L172.74 479.83L172.25 479.26L171.78 478.69L171.31 478.11L170.85 477.52L170.41 476.92L169.97 476.32L169.54 475.72L169.12 475.1L168.7 474.49L168.3 473.86L167.91 473.23L167.53 472.6L167.15 471.96L166.79 471.31L166.44 470.66L166.09 470L165.76 469.34L165.43 468.67L165.12 468L164.81 467.33L164.51 466.65L164.23 465.96L163.95 465.27L163.69 464.58L163.43 463.88L163.19 463.18L162.96 462.48L162.73 461.77L162.52 461.05L162.31 460.34L162.12 459.62L161.94 458.9L161.77 458.17L161.61 457.44L161.46 456.71L161.32 455.97L161.19 455.24L161.17 455.25L160.94 455.34L160.71 455.42L160.48 455.49L160.24 455.55L160 455.61L159.76 455.66L159.52 455.71L159.27 455.74L159.02 455.77L158.68 455.8L158.27 455.84L157.86 455.86L157.46 455.88L157.05 455.9L156.65 455.9L156.24 455.9L155.84 455.89L155.44 455.88L155.03 455.86L154.63 455.83L154.23 455.79L153.83 455.75L153.43 455.7L153.03 455.65L152.63 455.59L152.24 455.52L151.84 455.44L151.45 455.36L151.06 455.27L150.67 455.17L150.28 455.07L149.89 454.96L149.51 454.85L149.13 454.73L148.75 454.6L148.37 454.46L147.99 454.32L147.62 454.17L147.25 454.02L146.88 453.86L146.51 453.69L146.15 453.52L145.78 453.34L145.43 453.15L145.07 452.96L144.72 452.76L144.37 452.55L144.02 452.34L143.68 452.12L143.43 451.96L143.36 451.92L142.89 451.6L142.43 451.28L141.96 450.96L141.49 450.63L141.03 450.31L140.57 449.98L140.11 449.65L139.65 449.32L139.19 448.99L138.73 448.66L138.28 448.32L137.82 447.98L137.37 447.64L136.92 447.3L136.47 446.96L136.02 446.62L135.57 446.27L135.12 445.92L134.68 445.57L134.23 445.22L133.79 444.87L133.35 444.52L132.91 444.16L132.47 443.8L132.03 443.44L131.59 443.08L131.16 442.72L130.73 442.36L130.29 441.99L129.86 441.62L129.43 441.25L129.01 440.88L128.58 440.51L128.16 440.14L127.73 439.76L127.31 439.38L126.89 439L126.47 438.62L126.05 438.24L116.98 429.91L105.45 418.9L105.28 418.74L105.11 418.57L104.95 418.4L104.78 418.23L104.62 418.06L104.46 417.88L104.3 417.71L104.14 417.53L103.98 417.35L103.83 417.17L103.68 416.99L103.53 416.81L103.38 416.63L103.23 416.44L103.09 416.25L102.95 416.06L102.81 415.87L102.67 415.68L102.53 415.49L102.4 415.29L102.27 415.1L102.14 414.9L102.01 414.7L101.88 414.5L101.76 414.3L101.64 414.1L101.52 413.89L101.4 413.69L101.28 413.48L101.17 413.27L101.06 413.06L100.95 412.85L100.84 412.64L100.74 412.43L100.64 412.22L100.54 412L100.44 411.78L100.34 411.57L100.25 411.35L100.16 411.13L100.04 410.82L99.92 410.55L99.82 410.27L99.71 409.99L99.61 409.71L99.51 409.43L99.41 409.15L99.32 408.87L99.23 408.59L99.15 408.3L99.06 408.02L98.98 407.73L98.91 407.45L98.83 407.16L98.76 406.87L98.69 406.58L98.63 406.3L98.57 406.01L98.51 405.72L98.45 405.43L98.4 405.13L98.35 404.84L98.31 404.55L98.26 404.26L98.22 403.96L98.19 403.67L98.16 403.38L98.13 403.08L98.1 402.79L98.07 402.49L98.05 402.19L98.04 401.9L98.02 401.6L98.01 401.31L98.01 401.01L98 400.71L98 400.42L98 400.12L98.01 399.82L98.02 399.52L98.03 399.23L98.98 378.25L100.39 370.56L100.47 370.13L100.55 369.7L100.64 369.27L100.73 368.84L100.82 368.41L100.91 367.98L101 367.55L101.1 367.13L101.2 366.7L101.3 366.27L101.4 365.85L101.51 365.42L101.61 365L101.72 364.58L101.84 364.15L101.95 363.73L102.07 363.31L102.19 362.89L102.31 362.47L102.43 362.05L102.56 361.63L102.68 361.21L102.82 360.79L102.95 360.37L103.08 359.96L103.22 359.54L103.36 359.13L103.5 358.71L103.64 358.3L103.79 357.89L103.94 357.48L104.09 357.06L104.24 356.65L104.39 356.24L104.55 355.83L104.71 355.43L104.87 355.02L105.04 354.61L105.2 354.21L105.37 353.8L106.99 349.93L107.05 349.77L107.12 349.62L107.19 349.46L107.26 349.3L107.33 349.15L107.4 349L107.48 348.84L107.55 348.69L107.63 348.53L107.7 348.38L107.78 348.23L107.86 348.08L107.94 347.93L108.02 347.78L108.1 347.63L108.18 347.48L108.27 347.33L108.35 347.19L108.44 347.04L108.53 346.89L108.62 346.75L108.71 346.6L108.8 346.46L108.89 346.31L108.98 346.17L109.07 346.03L109.17 345.89L109.26 345.75L109.36 345.61L109.46 345.47L109.56 345.33L109.66 345.19L109.76 345.05L109.86 344.92L109.96 344.78L110.07 344.64L110.17 344.51L110.28 344.38L110.38 344.24L110.49 344.11L111.9 342.39L112.07 342.2L112.24 342L112.41 341.82L112.59 341.63L112.76 341.45L112.95 341.27L113.13 341.1L113.32 340.93L113.51 340.77L113.71 340.61L113.91 340.45L114.11 340.3L114.31 340.15L114.52 340.01L114.73 339.87L114.94 339.73L115.16 339.6L115.38 339.48L115.6 339.36L115.82 339.24L116.05 339.13L116.27 339.02L116.5 338.91L116.73 338.82L116.97 338.72L117.2 338.63L117.44 338.55L117.68 338.47L117.92 338.4L118.16 338.33L118.41 338.26L118.66 338.2L118.9 338.15L119.15 338.1L119.4 338.05L119.65 338.01L119.91 337.98L120.16 337.95L120.41 337.92L120.67 337.9L125.31 337.61L125.58 337.59L125.86 337.58L126.13 337.58L126.4 337.58L126.68 337.58L126.95 337.59L127.22 337.61L127.49 337.62L127.76 337.65L128.03 337.68L128.3 337.71L128.57 337.75L128.84 337.79L129.11 337.84L129.37 337.89L129.64 337.95L129.9 338.01L130.16 338.08L130.42 338.15L130.68 338.22L130.94 338.31L131.2 338.39L131.46 338.48L131.71 338.57L131.96 338.67L132.21 338.77L132.46 338.88L132.71 338.99L132.95 339.11L133.2 339.23L133.44 339.36L133.68 339.49L133.91 339.62L134.15 339.76L134.38 339.9L134.61 340.05L134.84 340.2L135.07 340.35L135.29 340.51L135.51 340.68L141.98 345.58L143.29 347.58L138.71 320.04L138.15 318.11L136.58 311.64L135.28 305.07L134.25 298.42L133.51 291.69L133.07 284.88L132.92 278L133.07 271.12L133.51 264.31L134.25 257.58L135.28 250.93L136.58 244.36L138.15 237.89L140 231.51L142.1 225.24L144.47 219.07L147.08 213.02L149.93 207.09L153.03 201.28L156.36 195.6L159.91 190.06L163.69 184.66L167.68 179.4L171.88 174.29L176.29 169.34L180.89 164.56L185.69 159.94L190.67 155.49L195.83 151.22L201.17 147.14L206.67 143.24L212.34 139.54L218.17 136.04L224.15 132.74L230.27 129.65L236.53 126.78L242.93 124.13L249.46 121.71L256.11 119.52L262.87 117.57L269.75 115.86L276.73 114.4L283.81 113.19L290.98 112.24L298.24 111.55L305.58 111.14L313 111L320.42 111.14L327.76 111.55ZM143.83 452.23L143.34 451.9L143.43 451.96L143.83 452.23ZM482.57 449.44L482.66 449.38L482.17 449.71L482.57 449.44Z" id="bmbWhyTnF"></path><path d="M313 111C316.71 111.2 319.03 111.32 319.96 111.37C333.94 112.12 347.84 113.98 361.53 116.93C361.53 116.93 361.53 116.93 361.53 116.93L365.53 236.94L427.53 250.7L313.53 347L197.53 250.7L263.53 236.94L263.23 116.99C264.62 116.65 265.48 116.45 265.83 116.36C280.71 112.8 295.97 111 311.27 111C311.5 111 312.08 111 313 111Z" id="a1rXHEpbAi"></path></defs><g><g><g><use xlink:href="#bmbWhyTnF" opacity="1" fill="#fddbb9" fill-opacity="1"></use></g><g><use xlink:href="#a1rXHEpbAi" opacity="1" fill="#90c2e1" fill-opacity="1"></use><g><use xlink:href="#a1rXHEpbAi" opacity="1" fill-opacity="0" stroke="#e68a3a" stroke-width="0" stroke-opacity="1"></use></g></g></g></g></svg>