<?xml version="1.0" encoding="UTF-8" standalone="no"?>
<!DOCTYPE svg PUBLIC "-//W3C//DTD SVG 1.1//EN" "http://www.w3.org/Graphics/SVG/1.1/DTD/svg11.dtd">
<svg version="1.1" xmlns="http://www.w3.org/2000/svg" xmlns:xlink="http://www.w3.org/1999/xlink" preserveAspectRatio="xMidYMid meet" viewBox="0 0 640 640" width="640" height="640"><defs><path d="M327.29 112.36L334.55 113.04L341.72 113.99L348.8 115.2L355.78 116.66L362.66 118.37L369.42 120.32L376.07 122.51L382.6 124.94L388.99 127.58L395.26 130.46L401.38 133.54L407.36 136.84L413.18 140.34L418.85 144.04L424.36 147.94L429.7 152.02L434.86 156.29L439.84 160.74L444.64 165.36L449.24 170.15L453.64 175.1L457.85 180.2L461.84 185.46L465.61 190.86L469.17 196.41L472.5 202.08L475.59 207.89L478.45 213.83L481.06 219.88L483.42 226.04L485.53 232.32L487.37 238.69L488.95 245.16L490.25 251.73L491.27 258.38L492.01 265.12L492.46 271.92L492.61 278.8L492.46 285.68L492.01 292.49L491.27 299.22L490.25 305.88L488.95 312.44L487.37 318.92L485.53 325.29L483.96 329.96L479.89 349.44L483.55 343.86L490.02 338.96L490.24 338.8L490.46 338.64L490.69 338.48L490.91 338.33L491.14 338.18L491.38 338.04L491.61 337.9L491.85 337.77L492.09 337.64L492.33 337.52L492.57 337.39L492.82 337.28L493.07 337.17L493.31 337.06L493.57 336.96L493.82 336.86L494.07 336.76L494.33 336.67L494.58 336.59L494.84 336.51L495.1 336.43L495.36 336.36L495.63 336.3L495.89 336.23L496.15 336.18L496.42 336.12L496.69 336.08L496.95 336.03L497.22 336L497.49 335.96L497.76 335.93L498.03 335.91L498.31 335.89L498.58 335.88L498.85 335.87L499.12 335.86L499.4 335.86L499.67 335.87L499.95 335.88L500.22 335.89L504.86 336.19L505.11 336.21L505.37 336.23L505.62 336.26L505.87 336.3L506.13 336.33L506.38 336.38L506.62 336.43L506.87 336.48L507.12 336.54L507.36 336.61L507.61 336.68L507.85 336.75L508.09 336.83L508.32 336.92L508.56 337.01L508.79 337.1L509.02 337.2L509.25 337.3L509.48 337.41L509.71 337.52L509.93 337.64L510.15 337.76L510.37 337.89L510.58 338.02L510.8 338.15L511.01 338.29L511.21 338.43L511.42 338.58L511.62 338.73L511.82 338.89L512.01 339.05L512.2 339.22L512.39 339.38L512.58 339.56L512.76 339.73L512.94 339.92L513.12 340.1L513.29 340.29L513.46 340.48L513.62 340.68L515.03 342.4L515.14 342.53L515.25 342.66L515.36 342.79L515.46 342.93L515.56 343.06L515.67 343.2L515.77 343.34L515.87 343.47L515.97 343.61L516.07 343.75L516.17 343.89L516.26 344.03L516.36 344.17L516.45 344.31L516.55 344.46L516.64 344.6L516.73 344.74L516.82 344.89L516.91 345.03L517 345.18L517.09 345.32L517.17 345.47L517.26 345.62L517.34 345.77L517.43 345.91L517.51 346.06L517.59 346.21L517.67 346.36L517.75 346.51L517.82 346.67L517.9 346.82L517.98 346.97L518.05 347.13L518.12 347.28L518.2 347.43L518.27 347.59L518.34 347.74L518.4 347.9L518.47 348.06L518.54 348.21L520.16 352.09L520.33 352.49L520.49 352.9L520.65 353.3L520.82 353.71L520.98 354.12L521.13 354.53L521.29 354.94L521.44 355.35L521.59 355.76L521.74 356.17L521.88 356.58L522.03 357L522.17 357.41L522.31 357.83L522.44 358.24L522.58 358.66L522.71 359.08L522.84 359.49L522.97 359.91L523.1 360.33L523.22 360.75L523.34 361.17L523.46 361.59L523.58 362.01L523.69 362.44L523.8 362.86L523.91 363.28L524.02 363.71L524.13 364.13L524.23 364.56L524.33 364.98L524.43 365.41L524.53 365.84L524.62 366.26L524.71 366.69L524.8 367.12L524.89 367.55L524.97 367.98L525.06 368.41L525.14 368.84L526.55 376.53L527.5 397.51L527.51 397.81L527.52 398.1L527.52 398.4L527.53 398.7L527.53 399L527.52 399.29L527.51 399.59L527.5 399.89L527.49 400.18L527.47 400.48L527.45 400.77L527.43 401.07L527.4 401.36L527.37 401.66L527.34 401.95L527.3 402.25L527.26 402.54L527.22 402.83L527.17 403.13L527.13 403.42L527.07 403.71L527.02 404L526.96 404.29L526.9 404.58L526.83 404.87L526.77 405.16L526.7 405.44L526.62 405.73L526.54 406.02L526.46 406.3L526.38 406.59L526.29 406.87L526.2 407.15L526.11 407.44L526.02 407.72L525.92 408L525.82 408.28L525.71 408.55L525.6 408.83L525.49 409.11L525.37 409.41L525.28 409.63L525.18 409.85L525.09 410.07L524.99 410.28L524.89 410.5L524.79 410.71L524.68 410.93L524.58 411.14L524.47 411.35L524.36 411.56L524.24 411.77L524.13 411.97L524.01 412.18L523.89 412.38L523.77 412.58L523.64 412.79L523.52 412.99L523.39 413.18L523.26 413.38L523.13 413.58L522.99 413.77L522.86 413.97L522.72 414.16L522.58 414.35L522.44 414.54L522.29 414.72L522.15 414.91L522 415.09L521.85 415.28L521.7 415.46L521.54 415.64L521.39 415.82L521.23 415.99L521.07 416.17L520.91 416.34L520.74 416.51L520.58 416.68L520.41 416.85L520.24 417.02L520.07 417.18L508.55 428.2L499.48 436.52L499.06 436.91L498.64 437.29L498.22 437.67L497.8 438.04L497.37 438.42L496.95 438.79L496.52 439.17L496.09 439.54L495.66 439.91L495.23 440.27L494.8 440.64L494.37 441L493.93 441.37L493.5 441.73L493.06 442.09L492.62 442.44L492.18 442.8L491.74 443.15L491.3 443.51L490.85 443.86L490.41 444.21L489.96 444.55L489.51 444.9L489.06 445.24L488.61 445.59L488.16 445.93L487.71 446.27L487.25 446.6L486.79 446.94L486.34 447.27L485.88 447.61L485.42 447.94L484.96 448.26L484.5 448.59L484.03 448.92L483.57 449.24L483.1 449.56L482.63 449.88L482.17 450.2L482.1 450.24L481.85 450.41L481.51 450.63L481.16 450.84L480.81 451.04L480.46 451.24L480.1 451.43L479.74 451.62L479.38 451.8L479.02 451.97L478.65 452.14L478.28 452.3L477.91 452.46L477.54 452.6L477.16 452.75L476.78 452.88L476.4 453.01L476.02 453.13L475.63 453.25L475.25 453.36L474.86 453.46L474.47 453.55L474.08 453.64L473.68 453.73L473.29 453.8L472.89 453.87L472.49 453.93L472.1 453.99L471.7 454.04L471.3 454.08L470.9 454.11L470.49 454.14L470.09 454.16L469.69 454.18L469.28 454.19L468.88 454.19L468.47 454.18L468.07 454.17L467.66 454.15L467.26 454.12L466.85 454.09L466.51 454.05L466.26 454.03L466.01 453.99L465.76 453.95L465.52 453.9L465.28 453.84L465.05 453.77L464.81 453.7L464.59 453.62L464.36 453.53L464.14 453.44L463.92 453.34L463.7 453.23L463.49 453.11L463.28 452.99L463.08 452.87L462.88 452.73L462.68 452.59L462.49 452.45L462.31 452.3L462.13 452.14L461.95 451.98L461.78 451.81L461.62 451.64L461.46 451.46L461.3 451.27L461.16 451.09L461.01 450.89L460.88 450.69L460.75 450.49L460.62 450.28L460.5 450.07L460.39 449.86L460.29 449.64L460.19 449.41L460.1 449.19L460.02 448.95L459.94 448.72L459.87 448.48L459.81 448.24L459.75 447.99L459.53 446.87L457.97 454.3L457.79 455.13L457.6 455.96L457.41 456.78L457.2 457.6L456.98 458.42L456.75 459.23L456.51 460.04L456.26 460.85L456.01 461.65L455.74 462.45L455.46 463.25L455.17 464.04L454.88 464.83L454.57 465.61L454.25 466.39L453.93 467.17L453.59 467.94L453.25 468.71L452.9 469.48L452.53 470.23L452.16 470.99L451.78 471.74L451.39 472.49L450.99 473.23L450.58 473.96L450.16 474.69L449.74 475.42L449.3 476.14L448.86 476.86L448.4 477.57L447.94 478.27L447.47 478.97L446.99 479.67L446.5 480.36L446 481.04L445.5 481.72L444.98 482.39L444.46 483.05L443.93 483.71L443.39 484.37L432.33 497.56L431.51 498.54L430.68 499.51L429.85 500.48L429.01 501.44L428.16 502.39L427.31 503.34L426.46 504.29L425.6 505.23L424.73 506.17L423.86 507.1L422.98 508.02L422.1 508.94L421.21 509.86L420.32 510.77L419.42 511.67L418.51 512.57L417.6 513.47L416.69 514.36L415.77 515.24L414.85 516.12L413.92 516.99L412.98 517.86L412.04 518.72L411.1 519.57L410.15 520.42L409.19 521.27L408.23 522.11L407.27 522.94L406.3 523.77L405.33 524.59L404.35 525.41L403.36 526.22L402.37 527.03L401.38 527.83L400.38 528.62L399.38 529.41L398.37 530.19L397.36 530.97L396.34 531.74L395.32 532.5L353.62 563.53L353.07 563.93L352.51 564.33L351.95 564.71L351.38 565.08L350.8 565.44L350.22 565.79L349.64 566.13L349.05 566.46L348.45 566.78L347.85 567.08L347.24 567.38L346.63 567.67L346.02 567.94L345.4 568.21L344.77 568.46L344.14 568.7L343.51 568.93L342.87 569.15L342.23 569.36L341.59 569.56L340.95 569.74L340.3 569.92L339.64 570.08L338.99 570.23L338.33 570.37L337.67 570.5L337 570.62L336.34 570.72L335.67 570.82L335 570.9L334.33 570.97L333.66 571.03L332.98 571.08L332.31 571.11L331.63 571.14L330.95 571.15L330.27 571.15L329.59 571.14L328.91 571.11L328.23 571.08L302.85 569.5L302.12 569.45L301.4 569.39L300.67 569.32L299.94 569.24L299.22 569.16L298.5 569.06L297.78 568.96L297.06 568.84L296.34 568.72L295.63 568.59L294.91 568.45L294.2 568.3L293.49 568.14L292.79 567.97L292.08 567.8L291.38 567.61L290.68 567.42L289.98 567.22L289.29 567.01L288.6 566.79L287.91 566.56L287.22 566.33L286.54 566.08L285.86 565.83L285.18 565.56L284.51 565.29L283.84 565.02L283.17 564.73L282.51 564.43L281.84 564.13L281.19 563.81L280.54 563.49L279.89 563.16L279.24 562.83L278.6 562.48L277.96 562.13L277.33 561.76L276.7 561.39L276.08 561.01L275.46 560.63L223.81 527.97L222.97 527.43L222.13 526.88L221.29 526.33L220.45 525.78L219.62 525.22L218.79 524.66L217.97 524.09L217.15 523.51L216.33 522.94L215.52 522.35L214.71 521.76L213.91 521.17L213.1 520.57L212.31 519.96L211.51 519.36L210.72 518.74L209.94 518.12L209.15 517.5L208.38 516.87L207.6 516.24L206.83 515.6L206.06 514.96L205.3 514.31L204.54 513.66L203.79 513L203.04 512.34L202.29 511.67L201.55 511L200.81 510.32L200.08 509.64L199.35 508.96L198.62 508.27L197.9 507.57L197.18 506.88L196.47 506.17L195.76 505.46L195.06 504.75L194.36 504.03L193.66 503.31L192.97 502.59L173.77 482.3L173.26 481.75L172.76 481.2L172.27 480.64L171.78 480.07L171.31 479.49L170.84 478.91L170.38 478.32L169.93 477.73L169.49 477.13L169.06 476.52L168.64 475.91L168.23 475.29L167.83 474.67L167.44 474.04L167.05 473.4L166.68 472.76L166.32 472.11L165.96 471.46L165.62 470.81L165.28 470.14L164.96 469.48L164.64 468.81L164.34 468.13L164.04 467.45L163.76 466.77L163.48 466.08L163.22 465.38L162.96 464.69L162.72 463.98L162.48 463.28L162.26 462.57L162.04 461.86L161.84 461.14L161.65 460.42L161.47 459.7L161.3 458.97L161.13 458.24L160.98 457.51L160.85 456.78L160.72 456.04L160.7 456.05L160.47 456.14L160.24 456.22L160.01 456.29L159.77 456.36L159.53 456.42L159.29 456.47L159.04 456.51L158.8 456.54L158.55 456.57L158.2 456.6L157.8 456.64L157.39 456.67L156.99 456.69L156.58 456.7L156.18 456.71L155.77 456.7L155.37 456.7L154.96 456.68L154.56 456.66L154.16 456.63L153.76 456.6L153.36 456.56L152.96 456.51L152.56 456.45L152.16 456.39L151.77 456.32L151.37 456.24L150.98 456.16L150.59 456.07L150.2 455.98L149.81 455.88L149.42 455.77L149.04 455.65L148.65 455.53L148.27 455.4L147.9 455.27L147.52 455.12L147.14 454.98L146.77 454.82L146.4 454.66L146.04 454.49L145.67 454.32L145.31 454.14L144.95 453.95L144.6 453.76L144.24 453.56L143.89 453.36L143.55 453.15L143.2 452.93L142.95 452.76L142.89 452.72L142.42 452.4L141.95 452.08L141.49 451.76L141.02 451.44L140.56 451.11L140.1 450.78L139.63 450.46L139.18 450.12L138.72 449.79L138.26 449.46L137.8 449.12L137.35 448.79L136.9 448.45L136.44 448.11L135.99 447.76L135.54 447.42L135.09 447.07L134.65 446.73L134.2 446.38L133.76 446.03L133.32 445.67L132.87 445.32L132.43 444.96L132 444.61L131.56 444.25L131.12 443.89L130.69 443.52L130.25 443.16L129.82 442.79L129.39 442.43L128.96 442.06L128.53 441.69L128.11 441.31L127.68 440.94L127.26 440.56L126.84 440.19L126.42 439.81L126 439.43L125.58 439.04L116.51 430.72L104.98 419.7L104.81 419.54L104.64 419.37L104.47 419.2L104.31 419.03L104.15 418.86L103.98 418.69L103.82 418.51L103.67 418.34L103.51 418.16L103.36 417.98L103.2 417.8L103.05 417.61L102.91 417.43L102.76 417.24L102.62 417.06L102.47 416.87L102.33 416.68L102.2 416.49L102.06 416.29L101.92 416.1L101.79 415.9L101.66 415.7L101.53 415.5L101.41 415.3L101.29 415.1L101.16 414.9L101.04 414.7L100.93 414.49L100.81 414.28L100.7 414.08L100.59 413.87L100.48 413.66L100.37 413.45L100.27 413.23L100.17 413.02L100.06 412.8L99.97 412.59L99.87 412.37L99.78 412.15L99.69 411.93L99.56 411.63L99.45 411.35L99.34 411.07L99.24 410.8L99.14 410.52L99.04 410.24L98.94 409.96L98.85 409.67L98.76 409.39L98.67 409.11L98.59 408.82L98.51 408.54L98.43 408.25L98.36 407.96L98.29 407.68L98.22 407.39L98.16 407.1L98.09 406.81L98.04 406.52L97.98 406.23L97.93 405.94L97.88 405.65L97.83 405.35L97.79 405.06L97.75 404.77L97.72 404.47L97.68 404.18L97.65 403.88L97.63 403.59L97.6 403.29L97.58 403L97.56 402.7L97.55 402.41L97.54 402.11L97.53 401.81L97.53 401.52L97.53 401.22L97.53 400.92L97.53 400.62L97.54 400.33L97.56 400.03L98.51 379.05L99.92 371.36L100 370.93L100.08 370.5L100.17 370.07L100.25 369.64L100.34 369.21L100.43 368.78L100.53 368.36L100.62 367.93L100.72 367.5L100.82 367.08L100.93 366.65L101.03 366.23L101.14 365.8L101.25 365.38L101.36 364.96L101.48 364.53L101.59 364.11L101.71 363.69L101.83 363.27L101.96 362.85L102.08 362.43L102.21 362.01L102.34 361.59L102.47 361.18L102.61 360.76L102.75 360.35L102.89 359.93L103.03 359.52L103.17 359.1L103.32 358.69L103.46 358.28L103.61 357.87L103.77 357.46L103.92 357.05L104.08 356.64L104.24 356.23L104.4 355.82L104.56 355.42L104.73 355.01L104.9 354.61L106.52 350.73L106.58 350.58L106.65 350.42L106.72 350.26L106.79 350.11L106.86 349.95L106.93 349.8L107 349.64L107.08 349.49L107.15 349.34L107.23 349.19L107.31 349.03L107.39 348.88L107.47 348.73L107.55 348.58L107.63 348.43L107.71 348.28L107.8 348.14L107.88 347.99L107.97 347.84L108.05 347.7L108.14 347.55L108.23 347.41L108.32 347.26L108.41 347.12L108.51 346.97L108.6 346.83L108.7 346.69L108.79 346.55L108.89 346.41L108.99 346.27L109.08 346.13L109.18 345.99L109.28 345.86L109.39 345.72L109.49 345.58L109.59 345.45L109.7 345.31L109.8 345.18L109.91 345.05L110.02 344.91L111.43 343.2L111.6 343L111.76 342.81L111.94 342.62L112.11 342.43L112.29 342.25L112.47 342.08L112.66 341.9L112.85 341.74L113.04 341.57L113.24 341.41L113.44 341.25L113.64 341.1L113.84 340.95L114.05 340.81L114.26 340.67L114.47 340.54L114.69 340.41L114.9 340.28L115.13 340.16L115.35 340.04L115.57 339.93L115.8 339.82L116.03 339.72L116.26 339.62L116.5 339.53L116.73 339.44L116.97 339.35L117.21 339.27L117.45 339.2L117.69 339.13L117.94 339.06L118.18 339L118.43 338.95L118.68 338.9L118.93 338.85L119.18 338.81L119.43 338.78L119.69 338.75L119.94 338.73L120.2 338.71L124.83 338.41L125.11 338.4L125.38 338.39L125.66 338.38L125.93 338.38L126.2 338.39L126.48 338.39L126.75 338.41L127.02 338.43L127.29 338.45L127.56 338.48L127.83 338.51L128.1 338.55L128.37 338.6L128.63 338.64L128.9 338.7L129.16 338.75L129.43 338.82L129.69 338.88L129.95 338.95L130.21 339.03L130.47 339.11L130.73 339.19L130.98 339.28L131.24 339.38L131.49 339.48L131.74 339.58L131.99 339.69L132.24 339.8L132.48 339.91L132.72 340.03L132.97 340.16L133.2 340.29L133.44 340.42L133.68 340.56L133.91 340.7L134.14 340.85L134.37 341L134.59 341.16L134.82 341.32L135.04 341.48L141.51 346.38L142.82 348.38L138.24 320.84L137.68 318.92L136.11 312.44L134.8 305.88L133.78 299.22L133.04 292.49L132.59 285.68L132.44 278.8L132.59 271.92L133.04 265.12L133.78 258.38L134.8 251.73L136.11 245.16L137.68 238.69L139.53 232.32L141.63 226.04L143.99 219.88L146.61 213.83L149.46 207.89L152.56 202.08L155.89 196.41L159.44 190.86L163.22 185.46L167.21 180.2L171.41 175.1L175.82 170.15L180.42 165.36L185.21 160.74L190.2 156.29L195.36 152.02L200.7 147.94L206.2 144.04L211.87 140.34L217.7 136.84L223.67 133.54L229.8 130.46L236.06 127.58L242.46 124.94L248.98 122.51L255.63 120.32L262.4 118.37L269.27 116.66L276.25 115.2L283.33 113.99L290.51 113.04L297.77 112.36L305.11 111.94L312.53 111.8L319.95 111.94L327.29 112.36ZM143.36 453.04L142.86 452.7L142.95 452.76L143.36 453.04ZM482.1 450.24L482.19 450.18L481.7 450.52L482.1 450.24Z" id="b2QPgJgGSs"></path><path d="M313 111C316.71 111.2 319.03 111.32 319.96 111.37C333.94 112.12 347.84 113.98 361.53 116.93C361.53 116.93 361.53 116.93 361.53 116.93L365.53 236.94L427.53 250.7L313.53 347L197.53 250.7L263.53 236.94L263.23 116.99C264.62 116.65 265.48 116.45 265.83 116.36C280.71 112.8 295.97 111 311.27 111C311.5 111 312.08 111 313 111Z" id="f1DLeeV9h1"></path></defs><g><g><g><use xlink:href="#b2QPgJgGSs" opacity="1" fill="#fde7d0" fill-opacity="1"></use></g><g><use xlink:href="#f1DLeeV9h1" opacity="1" fill="#b3cedb" fill-opacity="1"></use><g><use xlink:href="#f1DLeeV9h1" opacity="1" fill-opacity="0" stroke="#e68a3a" stroke-width="0" stroke-opacity="1"></use></g></g></g></g></svg>