<?xml version="1.0" encoding="UTF-8" standalone="no"?>
<!DOCTYPE svg PUBLIC "-//W3C//DTD SVG 1.1//EN" "http://www.w3.org/Graphics/SVG/1.1/DTD/svg11.dtd">
<svg version="1.1" xmlns="http://www.w3.org/2000/svg" xmlns:xlink="http://www.w3.org/1999/xlink" preserveAspectRatio="xMidYMid meet" viewBox="0 0 640 640" width="640" height="640"><defs><path d="M327.29 111.55L334.55 112.24L341.72 113.19L348.8 114.4L355.78 115.86L362.66 117.57L369.42 119.52L376.07 121.71L382.6 124.13L388.99 126.78L395.26 129.65L401.38 132.74L407.36 136.04L413.18 139.54L418.85 143.24L424.36 147.14L429.7 151.22L434.86 155.49L439.84 159.94L444.64 164.56L449.24 169.34L453.64 174.29L457.85 179.4L461.84 184.66L465.61 190.06L469.17 195.6L472.5 201.28L475.59 207.09L478.45 213.02L481.06 219.07L483.42 225.24L485.53 231.51L487.37 237.89L488.95 244.36L490.25 250.93L491.27 257.58L492.01 264.31L492.46 271.12L492.61 278L492.46 284.88L492.01 291.69L491.27 298.42L490.25 305.07L488.95 311.64L487.37 318.11L485.53 324.49L483.87 329.44L479.84 348.72L483.55 343.06L490.02 338.16L490.24 337.99L490.46 337.83L490.69 337.68L490.91 337.53L491.14 337.38L491.38 337.24L491.61 337.1L491.85 336.97L492.09 336.84L492.33 336.71L492.57 336.59L492.82 336.47L493.07 336.36L493.31 336.26L493.57 336.15L493.82 336.05L494.07 335.96L494.33 335.87L494.58 335.79L494.84 335.71L495.1 335.63L495.36 335.56L495.63 335.49L495.89 335.43L496.15 335.37L496.42 335.32L496.69 335.27L496.95 335.23L497.22 335.19L497.49 335.16L497.76 335.13L498.03 335.11L498.31 335.09L498.58 335.07L498.85 335.06L499.12 335.06L499.4 335.06L499.67 335.06L499.95 335.07L500.22 335.09L504.86 335.38L505.11 335.4L505.37 335.43L505.62 335.46L505.87 335.49L506.13 335.53L506.38 335.58L506.62 335.63L506.87 335.68L507.12 335.74L507.36 335.81L507.61 335.88L507.85 335.95L508.09 336.03L508.32 336.11L508.56 336.2L508.79 336.3L509.02 336.4L509.25 336.5L509.48 336.61L509.71 336.72L509.93 336.84L510.15 336.96L510.37 337.08L510.58 337.21L510.8 337.35L511.01 337.49L511.21 337.63L511.42 337.78L511.62 337.93L511.82 338.09L512.01 338.25L512.2 338.41L512.39 338.58L512.58 338.75L512.76 338.93L512.94 339.11L513.12 339.3L513.29 339.49L513.46 339.68L513.62 339.87L515.03 341.59L515.14 341.72L515.25 341.86L515.36 341.99L515.46 342.13L515.56 342.26L515.67 342.4L515.77 342.53L515.87 342.67L515.97 342.81L516.07 342.95L516.17 343.09L516.26 343.23L516.36 343.37L516.45 343.51L516.55 343.65L516.64 343.8L516.73 343.94L516.82 344.08L516.91 344.23L517 344.37L517.09 344.52L517.17 344.67L517.26 344.81L517.34 344.96L517.43 345.11L517.51 345.26L517.59 345.41L517.67 345.56L517.75 345.71L517.82 345.86L517.9 346.02L517.98 346.17L518.05 346.32L518.12 346.48L518.2 346.63L518.27 346.79L518.34 346.94L518.4 347.1L518.47 347.25L518.54 347.41L520.16 351.28L520.33 351.69L520.49 352.09L520.65 352.5L520.82 352.91L520.98 353.32L521.13 353.72L521.29 354.13L521.44 354.54L521.59 354.96L521.74 355.37L521.88 355.78L522.03 356.19L522.17 356.61L522.31 357.02L522.44 357.44L522.58 357.85L522.71 358.27L522.84 358.69L522.97 359.11L523.1 359.53L523.22 359.95L523.34 360.37L523.46 360.79L523.58 361.21L523.69 361.63L523.8 362.06L523.91 362.48L524.02 362.9L524.13 363.33L524.23 363.75L524.33 364.18L524.43 364.61L524.53 365.03L524.62 365.46L524.71 365.89L524.8 366.32L524.89 366.75L524.97 367.18L525.06 367.61L525.14 368.04L526.55 375.73L527.5 396.71L527.51 397L527.52 397.3L527.52 397.6L527.53 397.9L527.53 398.19L527.52 398.49L527.51 398.79L527.5 399.08L527.49 399.38L527.47 399.68L527.45 399.97L527.43 400.27L527.4 400.56L527.37 400.86L527.34 401.15L527.3 401.44L527.26 401.74L527.22 402.03L527.17 402.32L527.13 402.61L527.07 402.91L527.02 403.2L526.96 403.49L526.9 403.78L526.83 404.07L526.77 404.35L526.7 404.64L526.62 404.93L526.54 405.21L526.46 405.5L526.38 405.78L526.29 406.07L526.2 406.35L526.11 406.63L526.02 406.91L525.92 407.19L525.82 407.47L525.71 407.75L525.6 408.03L525.49 408.3L525.37 408.61L525.28 408.83L525.18 409.05L525.09 409.27L524.99 409.48L524.89 409.7L524.79 409.91L524.68 410.12L524.58 410.33L524.47 410.54L524.36 410.75L524.24 410.96L524.13 411.17L524.01 411.37L523.89 411.58L523.77 411.78L523.64 411.98L523.52 412.18L523.39 412.38L523.26 412.58L523.13 412.77L522.99 412.97L522.86 413.16L522.72 413.35L522.58 413.54L522.44 413.73L522.29 413.92L522.15 414.11L522 414.29L521.85 414.47L521.7 414.66L521.54 414.84L521.39 415.01L521.23 415.19L521.07 415.37L520.91 415.54L520.74 415.71L520.58 415.88L520.41 416.05L520.24 416.22L520.07 416.38L508.55 427.39L499.48 435.72L499.06 436.1L498.64 436.48L498.22 436.86L497.8 437.24L497.37 437.62L496.95 437.99L496.52 438.36L496.09 438.73L495.66 439.1L495.23 439.47L494.8 439.84L494.37 440.2L493.93 440.56L493.5 440.92L493.06 441.28L492.62 441.64L492.18 442L491.74 442.35L491.3 442.7L490.85 443.05L490.41 443.4L489.96 443.75L489.51 444.1L489.06 444.44L488.61 444.78L488.16 445.12L487.71 445.46L487.25 445.8L486.79 446.14L486.34 446.47L485.88 446.8L485.42 447.13L484.96 447.46L484.5 447.79L484.03 448.11L483.57 448.44L483.1 448.76L482.63 449.08L482.17 449.4L482.1 449.44L481.85 449.61L481.51 449.82L481.16 450.03L480.81 450.24L480.46 450.44L480.1 450.63L479.74 450.82L479.38 451L479.02 451.17L478.65 451.34L478.28 451.5L477.91 451.65L477.54 451.8L477.16 451.94L476.78 452.08L476.4 452.21L476.02 452.33L475.63 452.44L475.25 452.55L474.86 452.66L474.47 452.75L474.08 452.84L473.68 452.92L473.29 453L472.89 453.07L472.49 453.13L472.1 453.18L471.7 453.23L471.3 453.28L470.9 453.31L470.49 453.34L470.09 453.36L469.69 453.37L469.28 453.38L468.88 453.38L468.47 453.38L468.07 453.36L467.66 453.34L467.26 453.32L466.85 453.28L466.51 453.25L466.26 453.22L466.01 453.19L465.76 453.14L465.52 453.09L465.28 453.03L465.05 452.97L464.81 452.9L464.59 452.82L464.36 452.73L464.14 452.63L463.92 452.53L463.7 452.43L463.49 452.31L463.28 452.19L463.08 452.06L462.88 451.93L462.68 451.79L462.49 451.64L462.31 451.49L462.13 451.34L461.95 451.17L461.78 451.01L461.62 450.83L461.46 450.65L461.3 450.47L461.16 450.28L461.01 450.09L460.88 449.89L460.75 449.69L460.62 449.48L460.5 449.27L460.39 449.05L460.29 448.83L460.19 448.61L460.1 448.38L460.02 448.15L459.94 447.92L459.87 447.68L459.81 447.44L459.75 447.19L459.51 445.98L457.97 453.33L457.79 454.15L457.6 454.98L457.41 455.8L457.2 456.62L456.98 457.44L456.75 458.25L456.51 459.06L456.26 459.87L456.01 460.67L455.74 461.47L455.46 462.27L455.17 463.06L454.88 463.85L454.57 464.64L454.25 465.42L453.93 466.19L453.59 466.97L453.25 467.73L452.9 468.5L452.53 469.26L452.16 470.01L451.78 470.76L451.39 471.51L450.99 472.25L450.58 472.99L450.16 473.72L449.74 474.44L449.3 475.17L448.86 475.88L448.4 476.59L447.94 477.3L447.47 478L446.99 478.69L446.5 479.38L446 480.06L445.5 480.74L444.98 481.41L444.46 482.08L443.93 482.74L443.39 483.39L432.33 496.58L431.51 497.56L430.68 498.53L429.85 499.5L429.01 500.46L428.16 501.42L427.31 502.37L426.46 503.31L425.6 504.25L424.73 505.19L423.86 506.12L422.98 507.05L422.1 507.97L421.21 508.88L420.32 509.79L419.42 510.7L418.51 511.6L417.6 512.49L416.69 513.38L415.77 514.26L414.85 515.14L413.92 516.01L412.98 516.88L412.04 517.74L411.1 518.6L410.15 519.45L409.19 520.29L408.23 521.13L407.27 521.96L406.3 522.79L405.33 523.62L404.35 524.43L403.36 525.24L402.37 526.05L401.38 526.85L400.38 527.64L399.38 528.43L398.37 529.21L397.36 529.99L396.34 530.76L395.32 531.53L353.62 562.56L353.07 562.96L352.51 563.35L351.95 563.73L351.38 564.1L350.8 564.46L350.22 564.81L349.64 565.15L349.05 565.48L348.45 565.8L347.85 566.11L347.24 566.4L346.63 566.69L346.02 566.96L345.4 567.23L344.77 567.48L344.14 567.72L343.51 567.95L342.87 568.17L342.23 568.38L341.59 568.58L340.95 568.76L340.3 568.94L339.64 569.1L338.99 569.25L338.33 569.39L337.67 569.52L337 569.64L336.34 569.75L335.67 569.84L335 569.92L334.33 569.99L333.66 570.05L332.98 570.1L332.31 570.14L331.63 570.16L330.95 570.17L330.27 570.17L329.59 570.16L328.91 570.14L328.23 570.1L302.85 568.52L302.12 568.47L301.4 568.41L300.67 568.34L299.94 568.26L299.22 568.18L298.5 568.08L297.78 567.98L297.06 567.87L296.34 567.74L295.63 567.61L294.91 567.47L294.2 567.32L293.49 567.16L292.79 567L292.08 566.82L291.38 566.64L290.68 566.44L289.98 566.24L289.29 566.03L288.6 565.81L287.91 565.58L287.22 565.35L286.54 565.1L285.86 564.85L285.18 564.59L284.51 564.32L283.84 564.04L283.17 563.75L282.51 563.45L281.84 563.15L281.19 562.84L280.54 562.52L279.89 562.19L279.24 561.85L278.6 561.5L277.96 561.15L277.33 560.79L276.7 560.42L276.08 560.04L275.46 559.65L223.81 526.99L222.97 526.45L222.13 525.91L221.29 525.36L220.45 524.8L219.62 524.24L218.79 523.68L217.97 523.11L217.15 522.54L216.33 521.96L215.52 521.37L214.71 520.78L213.91 520.19L213.1 519.59L212.31 518.99L211.51 518.38L210.72 517.76L209.94 517.15L209.15 516.52L208.38 515.89L207.6 515.26L206.83 514.62L206.06 513.98L205.3 513.33L204.54 512.68L203.79 512.02L203.04 511.36L202.29 510.69L201.55 510.02L200.81 509.35L200.08 508.67L199.35 507.98L198.62 507.29L197.9 506.6L197.18 505.9L196.47 505.19L195.76 504.49L195.06 503.77L194.36 503.06L193.66 502.34L192.97 501.61L173.77 481.32L173.26 480.77L172.76 480.22L172.27 479.66L171.78 479.09L171.31 478.51L170.84 477.93L170.38 477.34L169.93 476.75L169.49 476.15L169.06 475.54L168.64 474.93L168.23 474.31L167.83 473.69L167.44 473.06L167.05 472.42L166.68 471.78L166.32 471.14L165.96 470.48L165.62 469.83L165.28 469.17L164.96 468.5L164.64 467.83L164.34 467.15L164.04 466.47L163.76 465.79L163.48 465.1L163.22 464.41L162.96 463.71L162.72 463.01L162.48 462.3L162.26 461.59L162.04 460.88L161.84 460.16L161.65 459.44L161.47 458.72L161.3 458L161.13 457.27L160.98 456.53L160.85 455.8L160.75 455.23L160.7 455.25L160.47 455.34L160.24 455.42L160.01 455.49L159.77 455.55L159.53 455.61L159.29 455.66L159.04 455.71L158.8 455.74L158.55 455.77L158.2 455.8L157.8 455.84L157.39 455.86L156.99 455.88L156.58 455.9L156.18 455.9L155.77 455.9L155.37 455.89L154.96 455.88L154.56 455.86L154.16 455.83L153.76 455.79L153.36 455.75L152.96 455.7L152.56 455.65L152.16 455.59L151.77 455.52L151.37 455.44L150.98 455.36L150.59 455.27L150.2 455.17L149.81 455.07L149.42 454.96L149.04 454.85L148.65 454.73L148.27 454.6L147.9 454.46L147.52 454.32L147.14 454.17L146.77 454.02L146.4 453.86L146.04 453.69L145.67 453.52L145.31 453.34L144.95 453.15L144.6 452.96L144.24 452.76L143.89 452.55L143.55 452.34L143.2 452.12L142.95 451.96L142.89 451.92L142.42 451.6L141.95 451.28L141.49 450.96L141.02 450.63L140.56 450.31L140.1 449.98L139.63 449.65L139.18 449.32L138.72 448.99L138.26 448.66L137.8 448.32L137.35 447.98L136.9 447.64L136.44 447.3L135.99 446.96L135.54 446.62L135.09 446.27L134.65 445.92L134.2 445.57L133.76 445.22L133.32 444.87L132.87 444.52L132.43 444.16L132 443.8L131.56 443.44L131.12 443.08L130.69 442.72L130.25 442.36L129.82 441.99L129.39 441.62L128.96 441.25L128.53 440.88L128.11 440.51L127.68 440.14L127.26 439.76L126.84 439.38L126.42 439L126 438.62L125.58 438.24L116.51 429.91L104.98 418.9L104.81 418.74L104.64 418.57L104.47 418.4L104.31 418.23L104.15 418.06L103.98 417.88L103.82 417.71L103.67 417.53L103.51 417.35L103.36 417.17L103.2 416.99L103.05 416.81L102.91 416.63L102.76 416.44L102.62 416.25L102.47 416.06L102.33 415.87L102.2 415.68L102.06 415.49L101.92 415.29L101.79 415.1L101.66 414.9L101.53 414.7L101.41 414.5L101.29 414.3L101.16 414.1L101.04 413.89L100.93 413.69L100.81 413.48L100.7 413.27L100.59 413.06L100.48 412.85L100.37 412.64L100.27 412.43L100.17 412.22L100.06 412L99.97 411.78L99.87 411.57L99.78 411.35L99.69 411.13L99.56 410.82L99.45 410.55L99.34 410.27L99.24 409.99L99.14 409.71L99.04 409.43L98.94 409.15L98.85 408.87L98.76 408.59L98.67 408.3L98.59 408.02L98.51 407.73L98.43 407.45L98.36 407.16L98.29 406.87L98.22 406.58L98.16 406.3L98.09 406.01L98.04 405.72L97.98 405.43L97.93 405.13L97.88 404.84L97.83 404.55L97.79 404.26L97.75 403.96L97.72 403.67L97.68 403.38L97.65 403.08L97.63 402.79L97.6 402.49L97.58 402.19L97.56 401.9L97.55 401.6L97.54 401.31L97.53 401.01L97.53 400.71L97.53 400.42L97.53 400.12L97.53 399.82L97.54 399.52L97.56 399.23L98.51 378.25L99.92 370.56L100 370.13L100.08 369.7L100.17 369.27L100.25 368.84L100.34 368.41L100.43 367.98L100.53 367.55L100.62 367.13L100.72 366.7L100.82 366.27L100.93 365.85L101.03 365.42L101.14 365L101.25 364.58L101.36 364.15L101.48 363.73L101.59 363.31L101.71 362.89L101.83 362.47L101.96 362.05L102.08 361.63L102.21 361.21L102.34 360.79L102.47 360.37L102.61 359.96L102.75 359.54L102.89 359.13L103.03 358.71L103.17 358.3L103.32 357.89L103.46 357.48L103.61 357.06L103.77 356.65L103.92 356.24L104.08 355.83L104.24 355.43L104.4 355.02L104.56 354.61L104.73 354.21L104.9 353.8L106.52 349.93L106.58 349.77L106.65 349.62L106.72 349.46L106.79 349.3L106.86 349.15L106.93 349L107 348.84L107.08 348.69L107.15 348.53L107.23 348.38L107.31 348.23L107.39 348.08L107.47 347.93L107.55 347.78L107.63 347.63L107.71 347.48L107.8 347.33L107.88 347.19L107.97 347.04L108.05 346.89L108.14 346.75L108.23 346.6L108.32 346.46L108.41 346.31L108.51 346.17L108.6 346.03L108.7 345.89L108.79 345.75L108.89 345.61L108.99 345.47L109.08 345.33L109.18 345.19L109.28 345.05L109.39 344.92L109.49 344.78L109.59 344.64L109.7 344.51L109.8 344.38L109.91 344.24L110.02 344.11L111.43 342.39L111.6 342.2L111.76 342L111.94 341.82L112.11 341.63L112.29 341.45L112.47 341.27L112.66 341.1L112.85 340.93L113.04 340.77L113.24 340.61L113.44 340.45L113.64 340.3L113.84 340.15L114.05 340.01L114.26 339.87L114.47 339.73L114.69 339.6L114.9 339.48L115.13 339.36L115.35 339.24L115.57 339.13L115.8 339.02L116.03 338.91L116.26 338.82L116.5 338.72L116.73 338.63L116.97 338.55L117.21 338.47L117.45 338.4L117.69 338.33L117.94 338.26L118.18 338.2L118.43 338.15L118.68 338.1L118.93 338.05L119.18 338.01L119.43 337.98L119.69 337.95L119.94 337.92L120.2 337.9L124.83 337.61L125.11 337.59L125.38 337.58L125.66 337.58L125.93 337.58L126.2 337.58L126.48 337.59L126.75 337.61L127.02 337.62L127.29 337.65L127.56 337.68L127.83 337.71L128.1 337.75L128.37 337.79L128.63 337.84L128.9 337.89L129.16 337.95L129.43 338.01L129.69 338.08L129.95 338.15L130.21 338.22L130.47 338.31L130.73 338.39L130.98 338.48L131.24 338.57L131.49 338.67L131.74 338.77L131.99 338.88L132.24 338.99L132.48 339.11L132.72 339.23L132.97 339.36L133.2 339.49L133.44 339.62L133.68 339.76L133.91 339.9L134.14 340.05L134.37 340.2L134.59 340.35L134.82 340.51L135.04 340.68L141.51 345.58L142.86 347.64L138.31 320.27L137.68 318.11L136.11 311.64L134.8 305.07L133.78 298.42L133.04 291.69L132.59 284.88L132.44 278L132.59 271.12L133.04 264.31L133.78 257.58L134.8 250.93L136.11 244.36L137.68 237.89L139.53 231.51L141.63 225.24L143.99 219.07L146.61 213.02L149.46 207.09L152.56 201.28L155.89 195.6L159.44 190.06L163.22 184.66L167.21 179.4L171.41 174.29L175.82 169.34L180.42 164.56L185.21 159.94L190.2 155.49L195.36 151.22L200.7 147.14L206.2 143.24L211.87 139.54L217.7 136.04L223.67 132.74L229.8 129.65L236.06 126.78L242.46 124.13L248.98 121.71L255.63 119.52L262.4 117.57L269.27 115.86L276.25 114.4L283.33 113.19L290.51 112.24L297.77 111.55L305.11 111.14L312.53 111L319.95 111.14L327.29 111.55ZM143.36 452.23L142.86 451.9L142.95 451.96L143.36 452.23ZM482.1 449.44L482.19 449.38L481.7 449.71L482.1 449.44Z" id="c5PcemqJn7"></path><path d="M313 111C316.71 111.2 319.03 111.32 319.96 111.37C333.94 112.12 347.84 113.98 361.53 116.93C361.53 116.93 361.53 116.93 361.53 116.93L365.53 236.94L427.53 250.7L313.53 347L197.53 250.7L263.53 236.94L263.23 116.99C264.62 116.65 265.48 116.45 265.83 116.36C280.71 112.8 295.97 111 311.27 111C311.5 111 312.08 111 313 111Z" id="d3W3S9AsA"></path><path d="M231.41 344.98L255.41 355.58C264.54 364.32 270.24 369.79 272.53 371.97C273.63 373.03 274.49 374.32 275.03 375.75C275.29 376.45 275.95 378.19 277.01 380.98C278.19 384.45 278.93 386.63 279.23 387.5C279.73 388.97 279.7 390.58 279.15 392.04C279 392.42 279.46 391.21 279.33 391.57C278.72 393.15 277.73 394.56 276.45 395.66C275.72 396.28 275.56 396.42 274.85 397.02C273.49 398.19 272.03 399.24 270.48 400.15C268.91 401.07 266.88 402.26 265.4 403.14C263.54 404.23 261.57 405.12 259.53 405.81C258.7 406.08 259.57 405.79 258.81 406.05C256.55 406.8 254.2 407.24 251.83 407.35C249.1 407.47 248.19 407.52 246.39 407.6C240.95 407.85 235.5 407.52 230.13 406.61C227.27 406.12 226.2 405.94 223.2 405.43C218.28 404.6 213.45 403.32 208.77 401.61C207.21 401.04 206.66 400.84 204.37 400.01C202.14 399.19 200.01 398.11 198.03 396.79C196.82 395.99 197.85 396.68 197.06 396.15C193.7 393.91 190.63 391.27 187.92 388.28C187.54 387.86 189.54 390.06 188.92 389.38C186.98 387.25 185.26 384.94 183.77 382.47C182.7 380.7 181.07 377.99 179.83 375.94C178.9 374.4 178.41 372.63 178.41 370.82C178.41 370.17 178.41 370.32 178.41 369.5C178.41 368.26 178.83 367.05 179.6 366.07C179.96 365.61 179.82 365.8 180.17 365.35C180.99 364.31 181.91 363.34 182.91 362.47C184.49 361.09 186.26 359.55 187.47 358.49C189.68 356.56 192.15 354.94 194.81 353.69C197.65 352.35 200.97 350.79 203.51 349.59C207.16 347.87 211 346.57 214.94 345.72C215.41 345.62 216.56 345.38 218.41 344.98L231.41 344.98Z" id="ahHSVHmv"></path><path d="M199.65 344.04L215.4 347C221.43 348.54 225.19 349.5 226.7 349.89C231.48 351.11 236.11 352.88 240.49 355.16C241.21 355.53 243.02 356.47 245.9 357.98L262.4 368.98C268.15 371.96 271.74 373.83 273.18 374.57C274.58 375.3 276.23 375.31 277.64 374.61C278.49 374.18 278.83 374.01 279.69 373.58C281.12 372.86 282.29 371.7 283.01 370.26C283.36 369.56 284.24 367.79 285.65 364.98C283.81 365.85 282.66 366.4 282.2 366.62C281.08 367.15 279.76 367.08 278.69 366.44C278.15 366.11 276.81 365.29 274.65 363.98L264.9 356.98C254.79 350.23 248.46 346.02 245.94 344.33C243.09 342.44 240.01 340.93 236.76 339.85C235.49 339.42 237.21 339.99 236.09 339.62C232.32 338.37 228.37 337.73 224.4 337.73C223.73 337.73 222.07 337.73 219.4 337.73L182.65 342.48L199.65 344.04Z" id="a1facSYl6t"></path><path d="M291.03 359.17C291.41 360.1 291.64 361.09 291.71 362.1C291.81 363.64 292.04 367.25 292.15 368.91C292.19 369.48 292.07 370.05 291.81 370.55C291.21 371.71 289.94 374.14 289.38 375.23C289.01 375.94 288.41 376.51 287.68 376.84C286.9 377.19 284.95 378.07 283.99 378.5C283.89 378.54 283.77 378.5 283.71 378.41C283.49 377.99 283.81 378.58 283.81 378.58C283.06 377.19 283.12 375.51 283.96 374.17C284.41 373.45 284.9 372.67 285.47 371.75C285.96 370.97 286.33 370.13 286.58 369.25C286.87 368.24 287.38 366.42 287.67 365.38C287.89 364.6 287.9 363.76 287.69 362.97C287.49 362.23 287 360.36 286.21 357.38C285.97 355.56 285.82 354.43 285.76 353.98C285.69 353.49 285.92 353.02 286.34 352.77C286.67 352.57 287.1 352.32 287.46 352.1C287.75 351.93 288.12 352.06 288.25 352.37C288.92 354.01 290.42 357.69 291.03 359.17Z" id="f4u3KP0IWR"></path><path d="M335.48 366.53C335.48 367.55 335.89 368.54 336.61 369.26C337.05 369.7 337.3 369.95 337.75 370.4C338.19 370.84 337.94 371.59 337.33 371.67C336.46 371.8 335.32 371.96 334.45 372.09C333.54 372.22 332.63 371.86 332.05 371.14C331.8 370.84 332.12 371.23 331.9 370.96C331.21 370.11 330.91 369.01 331.07 367.93C331.18 367.13 331.25 366.7 331.35 365.97C331.55 364.63 331.86 363.32 332.28 362.04C332.58 361.09 333.17 359.29 333.55 358.12C333.65 357.79 334.09 357.74 334.28 358.03C334.52 358.42 334.84 358.94 335.1 359.35C335.35 359.75 335.48 360.21 335.48 360.68C335.48 362.17 335.48 365.22 335.48 366.53Z" id="c1e0npJa3Q"></path><path d="M364.03 361.1L389.43 347C396.16 347.26 400.36 347.42 402.04 347.48C405.75 347.63 409.42 348.24 412.97 349.32C414.15 349.68 413.79 349.57 415.34 350.04C417.66 350.74 419.93 351.61 422.13 352.64C423.95 353.49 425.41 354.18 427.05 354.95C429.83 356.24 432.49 357.79 434.99 359.56C436.56 360.67 438.84 362.28 440.74 363.62C442.12 364.6 443.35 365.79 444.37 367.14C444.94 367.89 444.78 367.68 445.27 368.32C446.53 369.98 447.11 372.05 446.89 374.11C446.8 374.99 446.88 374.23 446.79 375.06C446.55 377.32 445.77 379.49 444.51 381.38C444.17 381.88 444.88 380.82 444.49 381.4C443.38 383.06 442.14 384.63 440.76 386.07C438.85 388.08 438.45 388.51 437.35 389.66C433.28 393.94 428.72 397.71 423.75 400.9C421.56 402.3 419.95 403.33 417.13 405.14C414.29 406.96 411.13 408.25 407.82 408.93C405.34 409.45 403.28 409.87 400.89 410.37C397.28 411.12 393.56 411.24 389.9 410.74C386.6 410.29 382.63 409.75 379.43 409.32C375.46 408.77 371.61 407.56 368.04 405.71C365.56 404.43 362.58 402.89 359.87 401.49C357.07 400.04 354.56 398.08 352.48 395.7C351.71 394.82 351.61 394.7 350.6 393.55C349.33 392.1 348.63 390.23 348.63 388.3C348.63 387.82 348.63 388.54 348.63 387.85C348.63 386.56 348.91 385.29 349.45 384.13C350.28 382.36 352.33 377.95 355.63 370.9L364.03 361.1Z" id="f1BZfDItKs"></path><path d="M348.37 375.43C350.1 376.01 351.96 376.03 353.7 375.48C354.44 375.25 353.96 375.4 354.69 375.17C356.5 374.61 358.22 373.77 359.79 372.69C360.76 372.03 363.17 370.37 367.03 367.72C371.68 364.4 374.59 362.32 375.75 361.49C378.47 359.55 381.34 357.86 384.35 356.41C385.37 355.93 387.92 354.7 392 352.75L409 346.08C414.84 343.55 418.49 341.96 419.95 341.33C421.85 340.5 423.9 340.08 425.96 340.08C426.32 340.08 427.22 340.08 428.66 340.08L441.83 338.58C436.34 336.84 432.91 335.75 431.54 335.32C428.87 334.47 426.13 333.87 423.35 333.52C421.78 333.33 419.51 333.05 417.51 332.79C416.19 332.63 414.86 332.56 413.53 332.6C411.27 332.65 408.04 332.73 406.17 332.78C403.53 332.85 400.89 333.13 398.29 333.64C397.87 333.72 399.45 333.41 398.76 333.55C397.06 333.88 395.44 334.51 393.97 335.41C392.82 336.11 389.95 337.87 385.36 340.67C366.56 354.9 354.82 363.79 350.12 367.35C349.07 368.14 347.86 368.67 346.57 368.91C346.06 369 346.84 368.86 346.42 368.94C344.89 369.22 343.31 368.87 342.05 367.97C341.62 367.67 340.56 366.92 338.86 365.71C341.46 369.33 343.08 371.59 343.72 372.5C344.57 373.68 345.77 374.57 347.15 375.03C347.93 375.28 347.7 375.21 348.37 375.43Z" id="f4lurPRJKc"></path></defs><g><g><g><use xlink:href="#c5PcemqJn7" opacity="1" fill="#e5d0bc" fill-opacity="1"></use></g><g><use xlink:href="#d3W3S9AsA" opacity="1" fill="#90c2e1" fill-opacity="1"></use><g><use xlink:href="#d3W3S9AsA" opacity="1" fill-opacity="0" stroke="#e68a3a" stroke-width="0" stroke-opacity="1"></use></g></g><g><use xlink:href="#ahHSVHmv" opacity="1" fill="#f6eee6" fill-opacity="1"></use></g><g><use xlink:href="#a1facSYl6t" opacity="1" fill="#5f544b" fill-opacity="1"></use></g><g><use xlink:href="#f4u3KP0IWR" opacity="1" fill="#b69f8b" fill-opacity="1"></use></g><g><use xlink:href="#c1e0npJa3Q" opacity="1" fill="#b69e8a" fill-opacity="1"></use></g><g><use xlink:href="#f1BZfDItKs" opacity="1" fill="#f6eee6" fill-opacity="1"></use></g><g><use xlink:href="#f4lurPRJKc" opacity="1" fill="#5f544b" fill-opacity="1"></use></g></g></g></svg>