<?xml version="1.0" encoding="UTF-8" standalone="no"?>
<!DOCTYPE svg PUBLIC "-//W3C//DTD SVG 1.1//EN" "http://www.w3.org/Graphics/SVG/1.1/DTD/svg11.dtd">
<svg version="1.1" xmlns="http://www.w3.org/2000/svg" xmlns:xlink="http://www.w3.org/1999/xlink" preserveAspectRatio="xMidYMid meet" viewBox="0 0 640 640" width="640" height="640"><defs><path d="M364.36 647.48L407.4 408.96C325.95 278.89 275.04 197.61 254.68 165.09C252.6 161.76 248.47 160.35 244.78 161.7C238.17 164.12 239.51 163.63 236.61 164.69C220.04 170.76 204.02 178.22 188.72 187.01C185.9 188.63 191.14 185.62 185.99 188.57C178.59 192.82 172.73 199.3 169.23 207.08C167.58 210.74 163.47 219.89 156.89 234.53L135.46 277.38C129.88 292.44 126.4 301.86 125.01 305.62C120.52 317.74 118.84 330.72 120.08 343.58C120.38 346.76 121.15 354.71 122.37 367.42C125.88 409.15 128.08 435.22 128.95 445.66C129.84 456.21 128.48 466.82 124.95 476.8C123.77 480.16 125.46 475.37 124.25 478.79C120.78 488.62 116.21 498.03 110.63 506.84C106.92 512.69 102.67 519.4 98.58 525.85C94.3 532.6 91.46 540.15 90.22 548.04C89.61 551.95 89.38 553.36 88.71 557.69C87.67 564.25 87.81 570.94 89.1 577.46C90.57 584.91 92.77 595.98 94.17 603.07C95.7 610.78 98.56 618.17 102.62 624.9C104.79 628.51 105.74 630.09 108.06 633.92C111.52 639.66 117.3 643.6 123.9 644.71C138.17 647.13 166.33 651.91 179.54 654.15C189.97 655.91 200.58 656.51 211.14 655.93C231.57 654.8 282.64 651.99 364.36 647.48Z" id="b1RSgb8KNX"></path><path d="M330.3 312.94L217.36 343.3L222.41 383.84C227.79 416.11 231.15 436.27 232.49 444.34C233.73 451.77 235.56 459.08 237.97 466.21C239.98 472.14 244.99 486.97 253.01 510.7C245.26 505.21 240.41 501.78 238.47 500.41C229.56 494.09 219.7 489.25 209.25 486.05C206.07 485.08 198.11 482.65 185.36 478.75L204.41 504.48L226.96 538.69L261.56 658.82C319.43 662.03 355.6 664.04 370.07 664.84C377.06 665.23 384 663.37 389.86 659.54C397.04 654.85 406.35 648.77 412.73 644.61C420.85 639.3 425.74 630.26 425.74 620.57C425.74 617.49 425.74 620.16 425.74 616.17C425.74 608.86 426.47 601.57 427.93 594.4C428.49 591.62 427.49 596.56 427.93 594.4C429.79 585.22 433.32 576.46 438.34 568.55C440.68 564.86 439 567.51 441.06 564.26C447.01 554.89 451.5 544.67 454.39 533.96C455.26 530.73 453.52 537.19 454.39 533.96C457.28 523.22 459.23 512.25 460.22 501.18C460.63 496.69 459.93 504.51 460.22 501.18C461.55 486.33 460.41 471.36 456.84 456.89C449.78 428.3 432.14 356.82 403.92 242.46L330.3 312.94Z" id="c2iBx5Uofl"></path><path d="M596.32 357.29L529.25 408.71L402.66 517.41L270.91 432.38L255.17 387.13L278.32 372.99C492.92 325.85 596.92 304.08 590.31 307.67C583.7 311.27 584.48 325.25 592.64 349.62L596.32 357.29Z" id="d2oWRfC6r8"></path><path d="M188.22 268.61L178.11 312.94L174.61 342.87L211.54 366.58L240.31 377.47L321.98 302.3L372.95 351.64C406.56 325.55 427.56 309.24 435.96 302.71C447.24 293.96 449.72 277.91 441.6 266.17C440.38 264.4 437.32 259.97 432.43 252.89L432.43 224.51L425.74 212.07L406.38 194.19L407.4 178.31L351.13 143.65L321.98 130.82L294.76 138.21L204.96 171.64L185.91 191.08L188.22 268.61Z" id="d2vwpCvwY7"></path><path d="M269.75 435.77L396.99 523.83L596.32 365.44L596.32 352.61L396.99 510.77L271.03 431.46L258.78 389.47L388.13 468.02L596.32 304.15L460.07 221.93L247.22 380.55L269.75 435.77Z" id="a15MC8J6No"></path><path d="M414.78 253.35L426.25 254.14C429.1 249.53 430.88 246.65 431.6 245.5C433.06 243.14 433.78 240.4 433.69 237.63C433.6 235.1 433.48 231.65 433.39 229.09C433.3 226.37 432.66 223.7 431.51 221.23C430.85 219.8 430.98 220.08 430.41 218.85C428.95 215.7 426.89 212.87 424.34 210.51C423.79 210 422.42 208.73 420.23 206.7C418.55 207.76 417.51 208.43 417.09 208.7C415.05 209.99 413.81 212.24 413.81 214.66C413.81 217.25 413.81 223.74 413.81 234.11L403.9 236.44L410.31 244.6L414.78 253.35Z" id="a4I0kvW3Gl"></path><path d="M383.24 336.97L457.1 298.87L439.61 265.44L403.9 235.12L374.94 244.25L359.19 248.72L378.05 306.07L383.24 336.97Z" id="cLT8etZWW"></path><path d="M243.02 383.84L285.01 349.59L309.51 335.87L333.62 336.8L358.58 341.85L373.66 356.63L392.71 364.79L411.37 363.24L434.7 349.59L446.37 331.36L452.58 331.36L474.35 320.86L475.13 294.81L466.58 279.26L432.75 258.54L443.25 273.82L440.53 290.54L403.99 297.19L384.94 292.44L361.61 280.38L340.62 258.54L326.23 287.78L300.57 297.5L267.53 278.45L230.98 299.05L200.27 324.32L180.83 349.59L243.02 383.84Z" id="d2WBknBO0r"></path><path d="M309.93 265.59L310.72 265.65L311.51 265.73L312.29 265.83L313.07 265.96L313.85 266.1L314.44 266.24L314.76 266.32L315.23 266.45L315.69 266.6L316.15 266.77L316.6 266.96L317.05 267.15L317.49 267.37L317.92 267.59L318.34 267.83L318.75 268.09L319.16 268.36L319.56 268.64L319.94 268.94L320.32 269.25L320.69 269.58L323.59 272.22L310.51 279.04L310.17 279.21L309.82 279.37L309.47 279.52L309.12 279.66L308.76 279.78L308.39 279.89L308.03 280L307.66 280.09L307.29 280.17L306.91 280.23L306.54 280.29L306.16 280.33L305.78 280.36L305.4 280.38L305.01 280.38L301.98 280.38L301.36 280.37L300.74 280.32L300.12 280.24L299.51 280.13L298.91 280L298.31 279.83L297.73 279.63L297.16 279.4L296.59 279.15L296.04 278.86L295.51 278.55L294.99 278.21L294.49 277.85L294 277.46L293.53 277.04L288.93 272.72L295.84 268.45L296.14 268.27L296.45 268.1L296.75 267.93L297.07 267.77L297.38 267.62L297.7 267.48L298.02 267.34L298.35 267.21L298.67 267.09L299.01 266.98L299.34 266.87L299.68 266.77L300.01 266.68L300.35 266.6L300.7 266.53L302.86 266.09L303.64 265.94L304.42 265.82L305.2 265.72L305.99 265.64L306.78 265.58L307.57 265.55L308.36 265.54L309.14 265.55L309.93 265.59ZM314.44 266.24L314.28 266.2L314.62 266.28L314.44 266.24ZM402.66 220.01L402.63 220.92L402.53 221.81L402.36 222.69L402.13 223.56L401.83 224.4L401.47 225.22L401.05 226L400.58 226.76L400.05 227.48L399.46 228.16L398.82 228.79L398.13 229.38L397.39 229.93L395 231.53L389.67 235.03L390.17 228.53L391.82 219.47L391.92 218.94L392.04 218.41L392.16 217.88L392.3 217.36L392.46 216.84L392.62 216.32L392.8 215.81L392.98 215.3L393.18 214.8L393.39 214.3L393.62 213.8L393.85 213.31L394.1 212.83L394.36 212.35L394.56 211.97L394.77 211.61L394.99 211.25L395.22 210.89L395.45 210.54L395.69 210.2L395.94 209.86L396.2 209.53L396.47 209.21L396.74 208.89L397.03 208.58L397.32 208.28L397.61 207.98L397.92 207.69L398.23 207.41L401.5 204.54L402.63 219.09L402.66 220.01Z" id="aTT1lj7Fi"></path><path d="M448.39 281.08C453.99 286.8 451.5 308.56 445.52 311.36C445.1 311.56 438 316.82 437.55 316.82C434.04 316.82 426.36 316.54 417.89 313.48C409.75 310.55 407.4 299.74 407.4 296.75C407.4 290.63 424.16 278.67 431.06 278.67C437.95 278.67 442.39 274.97 448.39 281.08Z" id="awcqpahU2"></path><path d="M334.09 246.36L332.09 246.24L330.15 246.13L328.27 246.03L326.45 245.93L324.68 245.85L322.98 245.78L321.34 245.71L319.75 245.66L318.22 245.61L316.75 245.57L315.35 245.55L314 245.53L312.7 245.52L311.47 245.52L310.3 245.53L309.18 245.55L308.13 245.57L307.13 245.61L306.19 245.66L305.32 245.71L304.5 245.78L303.74 245.85L303.03 245.93L302.39 246.03L301.81 246.13L301.28 246.24L300.82 246.36L300.41 246.49L300.01 246.63L299.59 246.8L299.12 246.98L298.63 247.18L298.1 247.4L297.53 247.64L296.93 247.9L296.3 248.18L295.63 248.48L294.93 248.8L294.19 249.14L293.42 249.5L292.62 249.87L291.78 250.27L290.91 250.68L290 251.12L289.06 251.57L288.08 252.05L287.08 252.54L286.03 253.05L284.96 253.59L283.84 254.14L282.7 254.71L281.52 255.3L280.3 255.91L279.06 256.54L277.77 257.19L276.46 257.85L275.11 258.54L270.18 257.23L270.14 257.21L270.11 257.2L270.07 257.18L270.04 257.16L270.01 257.14L269.98 257.12L269.95 257.09L269.93 257.07L269.9 257.04L269.88 257.01L269.86 256.97L269.85 256.94L269.84 256.91L269.82 256.87L269.82 256.84L269.81 256.8L269.81 256.77L269.81 256.73L269.81 256.69L269.81 256.66L269.82 256.62L269.83 256.59L269.84 256.55L269.86 256.52L269.87 256.48L269.9 256.45L269.92 256.42L269.95 256.39L269.98 256.36L290.11 238.36L290.44 238.08L290.77 237.8L291.1 237.54L291.45 237.28L291.8 237.04L292.15 236.8L292.51 236.57L292.87 236.35L293.24 236.14L293.62 235.94L294 235.75L294.38 235.57L294.77 235.4L295.16 235.24L295.56 235.09L295.96 234.95L296.36 234.82L296.77 234.69L297.18 234.58L297.59 234.48L298.01 234.39L298.43 234.31L298.85 234.24L299.27 234.18L299.69 234.13L300.12 234.1L300.55 234.07L300.98 234.05L301.41 234.05L305.43 234.05L336.15 246.49L334.09 246.36ZM404.32 178.36L404.67 178.42L405.01 178.51L405.34 178.62L405.66 178.76L405.98 178.92L406.28 179.1L406.57 179.31L406.84 179.54L407.1 179.79L407.35 180.06L407.57 180.36L407.77 180.67L408 181.05L382.01 221.37L384.9 195.08L384.98 194.45L385.09 193.83L385.23 193.22L385.39 192.61L385.59 192.02L385.8 191.44L386.04 190.86L386.31 190.3L386.6 189.76L386.91 189.22L387.25 188.7L387.61 188.2L387.99 187.71L388.4 187.24L388.82 186.79L389.26 186.35L389.73 185.93L390.21 185.54L390.72 185.16L391.24 184.81L391.78 184.47L401.2 178.97L401.53 178.79L401.87 178.64L402.21 178.52L402.56 178.43L402.91 178.36L403.26 178.32L403.62 178.31L403.97 178.32L404.32 178.36Z" id="f3RDKbzbaT"></path><path d="M126.31 518.81L178.56 517.41L208.02 529.75C236.7 542.35 254.62 550.22 261.79 553.37C278.86 560.87 291.72 575.57 296.9 593.48C298.71 599.76 303.24 615.46 310.49 640.57L105.38 631.19L126.31 518.81Z" id="aKHbxKSiX"></path><path d="M322.06 159.14L351.61 150.59C352.02 145.35 352.28 142.08 352.38 140.77C352.9 134.17 352.45 127.53 351.03 121.07C350.37 118.03 350.61 119.1 349.97 116.18C348.47 109.32 346.48 102.58 344.02 96.01C342.89 93.01 342.26 91.33 340.9 87.7C339.24 83.26 336.86 79.12 333.87 75.45C331.99 73.14 328.54 68.9 326.08 65.88C325.37 65 323.97 65.24 323.59 66.3C322.66 68.85 322.15 70.26 321.57 71.86C319.84 76.62 318.95 81.65 318.95 86.71C318.95 89.54 318.95 93.68 318.95 97.33C318.95 99.61 318.28 101.84 317.01 103.73C316.47 104.55 317.85 102.48 317.57 102.9C315.39 106.16 313.77 109.76 312.75 113.54C312.2 115.59 312.8 113.34 312.43 114.72C310.83 120.71 310.21 126.92 310.61 133.11C310.68 134.24 310.86 137.09 311.15 141.65L322.06 159.14Z" id="a4IZDU5o1b"></path><path d="M241.43 249.23L196.52 242.46L136.46 204.54L117.21 181L229.18 183.91L241.43 249.23Z" id="bRH4iNJrx"></path><path d="M199.19 220.57L155.16 196.36L125.13 185.87L134.17 198.7L121.92 201.9L153.41 217.94L149.92 220.57L158.95 224.94L148.75 232.52L182.28 238.64L174.61 247.97L186.65 243.31L185.36 257.3L191.03 247.97L194.77 263.81L207.6 243.98L229.76 231.15L199.19 220.57Z" id="cYEBWmAA3"></path></defs><g><g><g><use xlink:href="#b1RSgb8KNX" opacity="1" fill="#514135" fill-opacity="1"></use></g><g><use xlink:href="#c2iBx5Uofl" opacity="1" fill="#636352" fill-opacity="1"></use></g><g><use xlink:href="#d2oWRfC6r8" opacity="1" fill="#383a35" fill-opacity="1"></use></g><g><use xlink:href="#d2vwpCvwY7" opacity="1" fill="#514135" fill-opacity="1"></use></g><g><use xlink:href="#a15MC8J6No" opacity="1" fill="#271f40" fill-opacity="1"></use></g><g><use xlink:href="#a4I0kvW3Gl" opacity="1" fill="#636352" fill-opacity="1"></use></g><g><use xlink:href="#cLT8etZWW" opacity="1" fill="#514135" fill-opacity="1"></use></g><g><use xlink:href="#d2WBknBO0r" opacity="1" fill="#636352" fill-opacity="1"></use></g><g><use xlink:href="#aTT1lj7Fi" opacity="1" fill="#1fbcd3" fill-opacity="1"></use></g><g><use xlink:href="#awcqpahU2" opacity="1" fill="#181c1b" fill-opacity="1"></use></g><g><use xlink:href="#f3RDKbzbaT" opacity="1" fill="#636352" fill-opacity="1"></use></g><g><use xlink:href="#aKHbxKSiX" opacity="1" fill="#514135" fill-opacity="1"></use></g><g><use xlink:href="#a4IZDU5o1b" opacity="1" fill="#514135" fill-opacity="1"></use></g><g><use xlink:href="#bRH4iNJrx" opacity="1" fill="#514135" fill-opacity="1"></use></g><g><use xlink:href="#cYEBWmAA3" opacity="1" fill="#636352" fill-opacity="1"></use></g></g></g></svg>